<svg xmlns="http://www.w3.org/2000/svg" width="156" height="55" fill="none" xmlns:v="https://vecta.io/nano"><path d="M149.124 1H6.876C3.631 1 1 5.253 1 10.5v34C1 49.747 3.631 54 6.876 54h142.249c3.245 0 5.876-4.253 5.876-9.5v-34c0-5.247-2.631-9.5-5.876-9.5z" fill="#fffffc" stroke="#000"/><g fill="#000"><path fill-rule="evenodd" d="M32 12a16 16 0 0 0-16 16c0 7.08 4.58 13.06 10.94 15.18.8.14 1.1-.34 1.1-.76l-.02-2.98c-4.02.74-5.06-.98-5.38-1.88-.18-.46-.96-1.88-1.64-2.26-.56-.3-1.36-1.04-.02-1.06 1.26-.02 2.16 1.16 2.46 1.64 1.44 2.42 3.74 1.74 4.66 1.32.14-1.04.56-1.74 1.02-2.14-3.56-.4-7.28-1.78-7.28-7.9 0-1.74.62-3.18 1.64-4.3-.16-.4-.72-2.04.16-4.24 0 0 1.34-.42 4.4 1.64 1.28-.36 2.64-.54 4-.54s2.72.18 4 .54c3.06-2.08 4.4-1.64 4.4-1.64.88 2.2.32 3.84.16 4.24 1.02 1.12 1.64 2.54 1.64 4.3 0 6.14-3.74 7.5-7.3 7.9.58.5 1.08 1.46 1.08 2.96l-.02 4.4c0 .42.3.92 1.1.76a16.03 16.03 0 0 0 7.892-5.837C46.947 34.62 47.999 31.352 48 28a16 16 0 0 0-16-16z"/><path d="M64.305 22c-.408 0-.612-.204-.612-.612v-5.121c0-.408.204-.612.612-.612h2.16c.666 0 1.182.147 1.548.441.366.288.549.69.549 1.206 0 .342-.087.636-.261.882s-.414.426-.72.54c.36.102.639.282.837.54.204.252.306.573.306.963 0 .564-.192 1.002-.576 1.314-.378.306-.906.459-1.584.459h-2.259zm.495-3.654h1.467c.786 0 1.179-.303 1.179-.909s-.393-.909-1.179-.909H64.8v1.818zm0 2.781h1.62c.792 0 1.188-.318 1.188-.954s-.396-.954-1.188-.954H64.8v1.908zm5.665.945c-.384 0-.576-.198-.576-.594v-5.301c0-.396.192-.594.576-.594s.576.198.576.594v5.301c0 .396-.192.594-.576.594zm0-7.173c-.39 0-.585-.189-.585-.567 0-.372.195-.558.585-.558s.585.186.585.558c0 .378-.195.567-.585.567zM72.69 22c-.198 0-.348-.051-.45-.153-.096-.108-.138-.246-.126-.414.018-.168.093-.342.225-.522l3.168-4.293H72.6c-.342 0-.513-.162-.513-.486 0-.318.171-.477.513-.477h3.726c.198 0 .345.054.441.162.102.102.147.237.135.405-.012.162-.087.336-.225.522l-3.168 4.293h3.042c.342 0 .513.159.513.477 0 .324-.171.486-.513.486H72.69zm5.8 0c-.408 0-.612-.204-.612-.612v-5.121c0-.408.204-.612.612-.612h3.213c.312 0 .468.15.468.45 0 .312-.156.468-.468.468h-2.718v1.746h2.52c.312 0 .468.153.468.459s-.156.459-.468.459h-2.52v1.845h2.718c.312 0 .468.153.468.459s-.156.459-.468.459H78.49zm9.29.072c-.384 0-.576-.201-.576-.603v-2.385l-1.926-2.709c-.078-.108-.114-.222-.108-.342a.48.48 0 0 1 .153-.315c.09-.09.216-.135.378-.135.234 0 .438.123.612.369l1.485 2.106 1.494-2.106c.096-.132.189-.225.279-.279.09-.06.201-.09.333-.09.234 0 .387.087.459.261.078.168.048.348-.09.54l-1.917 2.709v2.376c0 .402-.192.603-.576.603zm4.368 0c-.384 0-.576-.198-.576-.594v-5.301c0-.396.192-.594.576-.594s.576.198.576.594v5.301c0 .396-.192.594-.576.594zM94.697 22c-.39 0-.585-.198-.585-.594v-5.193c0-.39.192-.585.576-.585s.576.195.576.585v4.806h2.61c.336 0 .504.162.504.486 0 .33-.168.495-.504.495h-3.177zm5.081 0c-.408 0-.612-.204-.612-.612v-5.121c0-.408.204-.612.612-.612h1.746c1.062 0 1.881.273 2.457.819.582.546.873 1.329.873 2.349 0 1.014-.291 1.797-.873 2.349-.576.552-1.395.828-2.457.828h-1.746zm.54-.954h1.134c1.464 0 2.196-.741 2.196-2.223 0-1.476-.732-2.214-2.196-2.214h-1.134v4.437zm6.279 1.026c-.384 0-.576-.198-.576-.594v-5.301c0-.396.192-.594.576-.594s.576.198.576.594v5.301c0 .396-.192.594-.576.594zm2.225-.072c-.198 0-.348-.051-.45-.153-.096-.108-.138-.246-.126-.414.018-.168.093-.342.225-.522l3.168-4.293h-2.907c-.342 0-.513-.162-.513-.486 0-.318.171-.477.513-.477h3.726c.198 0 .345.054.441.162.102.102.147.237.135.405-.012.162-.087.336-.225.522l-3.168 4.293h3.042c.342 0 .513.159.513.477 0 .324-.171.486-.513.486h-3.861zm10.152.072c-.306 0-.525-.15-.657-.45l-2.349-5.274c-.096-.228-.093-.411.009-.549.108-.144.264-.216.468-.216.174 0 .303.039.387.117.09.072.165.183.225.333l1.935 4.491 1.935-4.5a.87.87 0 0 1 .234-.324c.09-.078.216-.117.378-.117.192 0 .336.072.432.216.102.144.102.327 0 .549l-2.349 5.274a.85.85 0 0 1-.252.342c-.096.072-.228.108-.396.108zm4.508-.072c-.408 0-.612-.204-.612-.612v-5.121c0-.408.204-.612.612-.612h3.213c.312 0 .468.15.468.45 0 .312-.156.468-.468.468h-2.718v1.746h2.52c.312 0 .468.153.468.459s-.156.459-.468.459h-2.52v1.845h2.718c.312 0 .468.153.468.459s-.156.459-.468.459h-3.213zm5.334.072c-.384 0-.576-.198-.576-.594V16.24c0-.39.195-.585.585-.585h2.169c.696 0 1.233.168 1.611.504.378.33.567.795.567 1.395 0 .474-.123.867-.369 1.179-.246.306-.6.513-1.062.621.306.096.558.327.756.693l.675 1.251c.102.192.12.369.054.531-.06.162-.213.243-.459.243-.162 0-.294-.033-.396-.099-.102-.072-.192-.18-.27-.324l-.909-1.674c-.108-.204-.237-.339-.387-.405-.144-.072-.33-.108-.558-.108h-.855v2.016c0 .396-.192.594-.576.594zm.576-3.465h1.404c.84 0 1.26-.342 1.26-1.026 0-.678-.42-1.017-1.26-1.017h-1.404v2.043zM70.56 41.198c-1.428 0-2.64-.27-3.636-.81-.984-.54-1.734-1.296-2.25-2.268s-.774-2.112-.774-3.42c0-1.344.264-2.508.792-3.492a5.61 5.61 0 0 1 2.322-2.286c1.008-.54 2.22-.81 3.636-.81.648 0 1.296.072 1.944.216s1.272.384 1.872.72c.324.18.516.42.576.72a1.32 1.32 0 0 1-.09.882c-.132.276-.336.48-.612.612-.264.12-.582.09-.954-.09-.804-.42-1.71-.63-2.718-.63-1.284 0-2.25.36-2.898 1.08-.636.708-.954 1.734-.954 3.078 0 1.356.324 2.382.972 3.078.66.696 1.632 1.044 2.916 1.044.684 0 1.404-.108 2.16-.324v-2.484h-1.62c-.744 0-1.116-.336-1.116-1.008s.372-1.008 1.116-1.008h2.826c.732 0 1.098.372 1.098 1.116v4.176c0 .312-.066.576-.198.792-.12.216-.318.372-.594.468-.54.192-1.146.348-1.818.468s-1.338.18-1.998.18zm9.831-10.656c-.504 0-.894-.114-1.17-.342-.264-.24-.396-.576-.396-1.008 0-.444.132-.78.396-1.008.276-.24.666-.36 1.17-.36 1.032 0 1.548.456 1.548 1.368 0 .9-.516 1.35-1.548 1.35zm0 10.602c-.444 0-.786-.126-1.026-.378-.228-.264-.342-.63-.342-1.098v-6.156c0-.996.456-1.494 1.368-1.494.432 0 .762.132.99.396.24.252.36.618.36 1.098v6.156c0 .468-.114.834-.342 1.098-.228.252-.564.378-1.008.378zm9.406.054c-2.484 0-3.726-1.206-3.726-3.618v-3.384h-.756c-.708 0-1.062-.336-1.062-1.008 0-.684.354-1.026 1.062-1.026h.756v-1.368c0-.924.456-1.386 1.368-1.386.9 0 1.35.462 1.35 1.386v1.368h1.71c.696 0 1.044.342 1.044 1.026 0 .672-.348 1.008-1.044 1.008h-1.71v3.276c0 .504.114.882.342 1.134.24.252.618.378 1.134.378a2.24 2.24 0 0 0 .504-.054c.156-.036.3-.06.432-.072a.48.48 0 0 1 .414.162c.108.12.162.366.162.738 0 .3-.048.558-.144.774-.096.204-.264.354-.504.45-.156.06-.372.108-.648.144-.264.048-.492.072-.684.072zm6.197-.036c-.456 0-.804-.126-1.044-.378s-.36-.606-.36-1.062V29.588c0-.96.468-1.44 1.404-1.44.924 0 1.386.48 1.386 1.44v3.816h5.904v-3.816c0-.96.462-1.44 1.386-1.44.936 0 1.404.48 1.404 1.44v10.134c0 .456-.12.81-.36 1.062s-.588.378-1.044.378c-.444 0-.786-.126-1.026-.378s-.36-.606-.36-1.062v-3.996H97.38v3.996c0 .96-.462 1.44-1.386 1.44zm17.285.036c-1.128 0-1.962-.312-2.502-.936-.528-.624-.792-1.56-.792-2.808v-4.068c0-.912.45-1.368 1.35-1.368.912 0 1.368.456 1.368 1.368v4.14c0 1.044.45 1.566 1.35 1.566.516 0 .936-.18 1.26-.54.336-.372.504-.858.504-1.458v-3.708c0-.912.45-1.368 1.35-1.368.912 0 1.368.456 1.368 1.368v6.39c0 .924-.438 1.386-1.314 1.386-.432 0-.762-.12-.99-.36s-.342-.576-.342-1.008c-.588.936-1.458 1.404-2.61 1.404zm14.433 0c-.612 0-1.164-.132-1.656-.396s-.864-.624-1.116-1.08v.054c0 .924-.444 1.386-1.332 1.386-.9 0-1.35-.462-1.35-1.386V29.534c0-.924.456-1.386 1.368-1.386.9 0 1.35.462 1.35 1.386v3.816a2.72 2.72 0 0 1 1.116-.99 3.5 3.5 0 0 1 1.62-.378c.768 0 1.44.186 2.016.558.588.372 1.044.9 1.368 1.584s.486 1.5.486 2.448-.162 1.77-.486 2.466c-.324.684-.78 1.218-1.368 1.602-.576.372-1.248.558-2.016.558zm-.81-2.034a1.76 1.76 0 0 0 1.404-.63c.36-.42.54-1.074.54-1.962 0-.876-.18-1.518-.54-1.926a1.76 1.76 0 0 0-1.404-.63c-.588 0-1.062.21-1.422.63-.36.408-.54 1.05-.54 1.926 0 .888.18 1.542.54 1.962s.834.63 1.422.63z"/></g></svg>