<svg xmlns="http://www.w3.org/2000/svg" width="156" height="55" fill="none" xmlns:v="https://vecta.io/nano"><path d="M149.124 1H6.876C3.631 1 1 5.253 1 10.5v34C1 49.747 3.631 54 6.876 54h142.249c3.245 0 5.876-4.253 5.876-9.5v-34c0-5.247-2.631-9.5-5.876-9.5z" fill="#fffffc" stroke="#000"/><g fill="#000"><path fill-rule="evenodd" d="M32 12a16 16 0 0 0-16 16c0 7.08 4.58 13.06 10.94 15.18.8.14 1.1-.34 1.1-.76l-.02-2.98c-4.02.74-5.06-.98-5.38-1.88-.18-.46-.96-1.88-1.64-2.26-.56-.3-1.36-1.04-.02-1.06 1.26-.02 2.16 1.16 2.46 1.64 1.44 2.42 3.74 1.74 4.66 1.32.14-1.04.56-1.74 1.02-2.14-3.56-.4-7.28-1.78-7.28-7.9 0-1.74.62-3.18 1.64-4.3-.16-.4-.72-2.04.16-4.24 0 0 1.34-.42 4.4 1.64 1.28-.36 2.64-.54 4-.54s2.72.18 4 .54c3.06-2.08 4.4-1.64 4.4-1.64.88 2.2.32 3.84.16 4.24 1.02 1.12 1.64 2.54 1.64 4.3 0 6.14-3.74 7.5-7.3 7.9.58.5 1.08 1.46 1.08 2.96l-.02 4.4c0 .42.3.92 1.1.76a16.03 16.03 0 0 0 7.892-5.837C46.947 34.62 47.999 31.352 48 28a16 16 0 0 0-16-16z"/><path d="M65.88 22.09a5.15 5.15 0 0 1-1.179-.135c-.378-.09-.708-.225-.99-.405a.54.54 0 0 1-.252-.333.59.59 0 0 1 .027-.369c.054-.12.135-.201.243-.243.114-.048.243-.027.387.063.264.156.543.27.837.342s.603.108.927.108c.474 0 .819-.078 1.035-.234.216-.162.324-.369.324-.621a.59.59 0 0 0-.234-.495c-.15-.12-.411-.219-.783-.297l-.99-.207c-1.128-.24-1.692-.819-1.692-1.737 0-.396.105-.741.315-1.035s.501-.522.873-.684.801-.243 1.287-.243c.36 0 .702.045 1.026.135a2.97 2.97 0 0 1 .873.396.49.49 0 0 1 .216.315c.024.12.009.234-.045.342a.45.45 0 0 1-.261.216c-.114.036-.249.009-.405-.081a2.56 2.56 0 0 0-.675-.27c-.228-.054-.474-.081-.738-.081-.414 0-.738.087-.972.261s-.351.402-.351.684c0 .216.072.39.216.522.144.126.39.225.738.297l.981.207c.594.126 1.035.324 1.323.594.294.27.441.63.441 1.08 0 .378-.102.711-.306.999s-.495.513-.873.675c-.372.156-.813.234-1.323.234zm7.265-.018c-.384 0-.576-.198-.576-.594v-4.86h-1.755c-.33 0-.495-.162-.495-.486 0-.318.165-.477.495-.477h4.662c.33 0 .495.159.495.477 0 .324-.165.486-.495.486h-1.755v4.86c0 .396-.192.594-.576.594zm4.644 0c-.21 0-.36-.072-.45-.216s-.087-.318.009-.522l2.376-5.265c.078-.174.171-.297.279-.369a.67.67 0 0 1 .387-.117c.138 0 .261.039.369.117.114.072.21.195.288.369l2.385 5.265c.096.21.102.387.018.531-.084.138-.228.207-.432.207-.168 0-.3-.039-.396-.117-.09-.084-.171-.21-.243-.378l-.45-1.044h-3.096l-.441 1.044c-.078.174-.159.3-.243.378s-.204.117-.36.117zm2.583-5.166l-1.143 2.709h2.304l-1.143-2.709h-.018zm6.427 5.166c-.384 0-.576-.198-.576-.594V16.24c0-.39.195-.585.585-.585h2.169c.696 0 1.233.168 1.611.504.378.33.567.795.567 1.395 0 .474-.123.867-.369 1.179-.246.306-.6.513-1.062.621.306.096.558.327.756.693l.675 1.251c.102.192.12.369.054.531-.06.162-.213.243-.459.243-.162 0-.294-.033-.396-.099-.102-.072-.192-.18-.27-.324l-.909-1.674c-.108-.204-.237-.339-.387-.405-.144-.072-.33-.108-.558-.108h-.855v2.016c0 .396-.192.594-.576.594zm.576-3.465h1.404c.84 0 1.26-.342 1.26-1.026 0-.678-.42-1.017-1.26-1.017h-1.404v2.043zm13.698 3.483c-.87 0-1.536-.225-1.998-.675-.456-.456-.684-1.128-.684-2.016v-3.231c0-.39.192-.585.576-.585s.576.195.576.585v3.222c0 .57.129.999.387 1.287.264.282.645.423 1.143.423 1.014 0 1.521-.57 1.521-1.71v-3.222c0-.39.192-.585.576-.585.378 0 .567.195.567.585v3.231c0 .888-.225 1.56-.675 2.016-.45.45-1.113.675-1.989.675zm7.995 0a5.15 5.15 0 0 1-1.179-.135c-.378-.09-.708-.225-.99-.405a.54.54 0 0 1-.252-.333.59.59 0 0 1 .027-.369c.054-.12.135-.201.243-.243.114-.048.243-.027.387.063.264.156.543.27.837.342s.603.108.927.108c.474 0 .819-.078 1.035-.234.216-.162.324-.369.324-.621a.59.59 0 0 0-.234-.495c-.15-.12-.411-.219-.783-.297l-.99-.207c-1.128-.24-1.692-.819-1.692-1.737 0-.396.105-.741.315-1.035s.501-.522.873-.684.801-.243 1.287-.243c.36 0 .702.045 1.026.135a2.97 2.97 0 0 1 .873.396.49.49 0 0 1 .216.315c.024.12.009.234-.045.342a.45.45 0 0 1-.261.216c-.114.036-.249.009-.405-.081a2.56 2.56 0 0 0-.675-.27c-.228-.054-.474-.081-.738-.081-.414 0-.738.087-.972.261s-.351.402-.351.684c0 .216.072.39.216.522.144.126.39.225.738.297l.981.207c.594.126 1.035.324 1.323.594.294.27.441.63.441 1.08 0 .378-.102.711-.306.999s-.495.513-.873.675c-.372.156-.813.234-1.323.234zm12.378 0c-.612 0-1.149-.135-1.611-.405-.456-.27-.81-.648-1.062-1.134-.252-.492-.378-1.068-.378-1.728 0-.666.126-1.242.378-1.728a2.71 2.71 0 0 1 1.062-1.125c.456-.27.993-.405 1.611-.405s1.155.135 1.611.405a2.71 2.71 0 0 1 1.062 1.125c.252.486.378 1.059.378 1.719 0 .666-.126 1.245-.378 1.737-.252.486-.606.864-1.062 1.134s-.993.405-1.611.405zm0-.99c.582 0 1.035-.201 1.359-.603s.486-.96.486-1.674c0-.72-.162-1.278-.486-1.674-.318-.396-.771-.594-1.359-.594-.582 0-1.035.198-1.359.594s-.486.954-.486 1.674c0 .714.162 1.272.486 1.674s.777.603 1.359.603zm6.562.972c-.36 0-.54-.186-.54-.558v-5.355c0-.186.045-.327.135-.423.096-.102.219-.153.369-.153.138 0 .24.027.306.081.072.048.156.132.252.252l3.213 4.167v-3.951c0-.366.18-.549.54-.549.354 0 .531.183.531.549v5.4c0 .168-.042.3-.126.396a.43.43 0 0 1-.342.144c-.138 0-.249-.027-.333-.081-.078-.054-.165-.141-.261-.261l-3.213-4.176v3.96c0 .372-.177.558-.531.558zM70.56 41.198c-1.428 0-2.64-.27-3.636-.81-.984-.54-1.734-1.296-2.25-2.268s-.774-2.112-.774-3.42c0-1.344.264-2.508.792-3.492a5.61 5.61 0 0 1 2.322-2.286c1.008-.54 2.22-.81 3.636-.81.648 0 1.296.072 1.944.216s1.272.384 1.872.72c.324.18.516.42.576.72a1.32 1.32 0 0 1-.09.882c-.132.276-.336.48-.612.612-.264.12-.582.09-.954-.09-.804-.42-1.71-.63-2.718-.63-1.284 0-2.25.36-2.898 1.08-.636.708-.954 1.734-.954 3.078 0 1.356.324 2.382.972 3.078.66.696 1.632 1.044 2.916 1.044.684 0 1.404-.108 2.16-.324v-2.484h-1.62c-.744 0-1.116-.336-1.116-1.008s.372-1.008 1.116-1.008h2.826c.732 0 1.098.372 1.098 1.116v4.176c0 .312-.066.576-.198.792-.12.216-.318.372-.594.468-.54.192-1.146.348-1.818.468s-1.338.18-1.998.18zm9.831-10.656c-.504 0-.894-.114-1.17-.342-.264-.24-.396-.576-.396-1.008 0-.444.132-.78.396-1.008.276-.24.666-.36 1.17-.36 1.032 0 1.548.456 1.548 1.368 0 .9-.516 1.35-1.548 1.35zm0 10.602c-.444 0-.786-.126-1.026-.378-.228-.264-.342-.63-.342-1.098v-6.156c0-.996.456-1.494 1.368-1.494.432 0 .762.132.99.396.24.252.36.618.36 1.098v6.156c0 .468-.114.834-.342 1.098-.228.252-.564.378-1.008.378zm9.406.054c-2.484 0-3.726-1.206-3.726-3.618v-3.384h-.756c-.708 0-1.062-.336-1.062-1.008 0-.684.354-1.026 1.062-1.026h.756v-1.368c0-.924.456-1.386 1.368-1.386.9 0 1.35.462 1.35 1.386v1.368h1.71c.696 0 1.044.342 1.044 1.026 0 .672-.348 1.008-1.044 1.008h-1.71v3.276c0 .504.114.882.342 1.134.24.252.618.378 1.134.378a2.24 2.24 0 0 0 .504-.054c.156-.036.3-.06.432-.072a.48.48 0 0 1 .414.162c.108.12.162.366.162.738 0 .3-.048.558-.144.774-.096.204-.264.354-.504.45-.156.06-.372.108-.648.144-.264.048-.492.072-.684.072zm6.197-.036c-.456 0-.804-.126-1.044-.378s-.36-.606-.36-1.062V29.588c0-.96.468-1.44 1.404-1.44.924 0 1.386.48 1.386 1.44v3.816h5.904v-3.816c0-.96.462-1.44 1.386-1.44.936 0 1.404.48 1.404 1.44v10.134c0 .456-.12.81-.36 1.062s-.588.378-1.044.378c-.444 0-.786-.126-1.026-.378s-.36-.606-.36-1.062v-3.996H97.38v3.996c0 .96-.462 1.44-1.386 1.44zm17.285.036c-1.128 0-1.962-.312-2.502-.936-.528-.624-.792-1.56-.792-2.808v-4.068c0-.912.45-1.368 1.35-1.368.912 0 1.368.456 1.368 1.368v4.14c0 1.044.45 1.566 1.35 1.566.516 0 .936-.18 1.26-.54.336-.372.504-.858.504-1.458v-3.708c0-.912.45-1.368 1.35-1.368.912 0 1.368.456 1.368 1.368v6.39c0 .924-.438 1.386-1.314 1.386-.432 0-.762-.12-.99-.36s-.342-.576-.342-1.008c-.588.936-1.458 1.404-2.61 1.404zm14.433 0c-.612 0-1.164-.132-1.656-.396s-.864-.624-1.116-1.08v.054c0 .924-.444 1.386-1.332 1.386-.9 0-1.35-.462-1.35-1.386V29.534c0-.924.456-1.386 1.368-1.386.9 0 1.35.462 1.35 1.386v3.816a2.72 2.72 0 0 1 1.116-.99 3.5 3.5 0 0 1 1.62-.378c.768 0 1.44.186 2.016.558.588.372 1.044.9 1.368 1.584s.486 1.5.486 2.448-.162 1.77-.486 2.466c-.324.684-.78 1.218-1.368 1.602-.576.372-1.248.558-2.016.558zm-.81-2.034a1.76 1.76 0 0 0 1.404-.63c.36-.42.54-1.074.54-1.962 0-.876-.18-1.518-.54-1.926a1.76 1.76 0 0 0-1.404-.63c-.588 0-1.062.21-1.422.63-.36.408-.54 1.05-.54 1.926 0 .888.18 1.542.54 1.962s.834.63 1.422.63z"/></g></svg>