<svg xmlns="http://www.w3.org/2000/svg" width="156" height="55" fill="none" xmlns:v="https://vecta.io/nano"><path d="M149.124 1H6.876C3.631 1 1 5.253 1 10.5v34C1 49.747 3.631 54 6.876 54h142.249c3.245 0 5.876-4.253 5.876-9.5v-34c0-5.247-2.631-9.5-5.876-9.5z" fill="#fffffc" stroke="#000"/><path d="M67.287 22.072c-.396 0-.594-.204-.594-.612v-5.193c0-.408.204-.612.612-.612h3.141c.312 0 .468.15.468.45 0 .312-.156.468-.468.468h-2.601v1.791h2.412c.312 0 .468.15.468.45 0 .312-.156.468-.468.468h-2.412v2.178c0 .408-.186.612-.558.612zm7.189.018c-.612 0-1.149-.135-1.611-.405-.456-.27-.81-.648-1.062-1.134-.252-.492-.378-1.068-.378-1.728 0-.666.126-1.242.378-1.728a2.71 2.71 0 0 1 1.062-1.125c.456-.27.993-.405 1.611-.405s1.155.135 1.611.405a2.71 2.71 0 0 1 1.062 1.125c.252.486.378 1.059.378 1.719 0 .666-.126 1.245-.378 1.737-.252.486-.606.864-1.062 1.134s-.993.405-1.611.405zm0-.99c.582 0 1.035-.201 1.359-.603s.486-.96.486-1.674c0-.72-.162-1.278-.486-1.674-.318-.396-.771-.594-1.359-.594-.582 0-1.035.198-1.359.594s-.486.954-.486 1.674c0 .714.162 1.272.486 1.674s.777.603 1.359.603zm4.807.9c-.39 0-.585-.198-.585-.594v-5.193c0-.39.192-.585.576-.585s.576.195.576.585v4.806h2.61c.336 0 .504.162.504.486 0 .33-.168.495-.504.495h-3.177zm5.054 0c-.39 0-.585-.198-.585-.594v-5.193c0-.39.192-.585.576-.585s.576.195.576.585v4.806h2.61c.336 0 .504.162.504.486 0 .33-.168.495-.504.495h-3.177zm6.97.09c-.612 0-1.149-.135-1.611-.405-.456-.27-.81-.648-1.062-1.134-.252-.492-.378-1.068-.378-1.728 0-.666.126-1.242.378-1.728a2.71 2.71 0 0 1 1.062-1.125c.456-.27.993-.405 1.611-.405s1.155.135 1.611.405a2.71 2.71 0 0 1 1.062 1.125c.252.486.378 1.059.378 1.719 0 .666-.126 1.245-.378 1.737-.252.486-.606.864-1.062 1.134s-.993.405-1.611.405zm0-.99c.582 0 1.035-.201 1.359-.603s.486-.96.486-1.674c0-.72-.162-1.278-.486-1.674-.318-.396-.771-.594-1.359-.594-.582 0-1.035.198-1.359.594s-.486.954-.486 1.674c0 .714.162 1.272.486 1.674s.777.603 1.359.603zm6.296.972c-.306 0-.516-.162-.63-.486l-1.881-5.319c-.066-.192-.054-.354.036-.486.096-.132.255-.198.477-.198.162 0 .288.039.378.117.09.072.162.189.216.351l1.44 4.284 1.512-4.275c.114-.318.306-.477.576-.477.144 0 .258.039.342.117s.156.201.216.369l1.485 4.329 1.485-4.347c.054-.156.126-.273.216-.351s.213-.117.369-.117c.192 0 .333.066.423.198s.102.294.036.486l-1.899 5.328c-.06.162-.138.282-.234.36s-.225.117-.387.117-.291-.039-.387-.117-.174-.201-.234-.369l-1.467-4.167-1.476 4.176c-.06.162-.138.282-.234.36-.09.078-.216.117-.378.117zm12.868.018c-.87 0-1.536-.225-1.998-.675-.456-.456-.684-1.128-.684-2.016v-3.231c0-.39.192-.585.576-.585s.576.195.576.585v3.222c0 .57.129.999.387 1.287.264.282.645.423 1.143.423 1.014 0 1.521-.57 1.521-1.71v-3.222c0-.39.192-.585.576-.585.378 0 .567.195.567.585v3.231c0 .888-.225 1.56-.675 2.016-.45.45-1.113.675-1.989.675zm6.194 0a5.15 5.15 0 0 1-1.179-.135c-.378-.09-.708-.225-.99-.405a.54.54 0 0 1-.252-.333.59.59 0 0 1 .027-.369c.054-.12.135-.201.243-.243.114-.048.243-.027.387.063.264.156.543.27.837.342s.603.108.927.108c.474 0 .819-.078 1.035-.234.216-.162.324-.369.324-.621a.59.59 0 0 0-.234-.495c-.15-.12-.411-.219-.783-.297l-.99-.207c-1.128-.24-1.692-.819-1.692-1.737 0-.396.105-.741.315-1.035s.501-.522.873-.684.801-.243 1.287-.243c.36 0 .702.045 1.026.135a2.97 2.97 0 0 1 .873.396.49.49 0 0 1 .216.315c.024.12.009.234-.045.342a.45.45 0 0 1-.261.216c-.114.036-.249.009-.405-.081a2.56 2.56 0 0 0-.675-.27c-.228-.054-.474-.081-.738-.081-.414 0-.738.087-.972.261s-.351.402-.351.684c0 .216.072.39.216.522.144.126.39.225.738.297l.981.207c.594.126 1.035.324 1.323.594.294.27.441.63.441 1.08 0 .378-.102.711-.306.999s-.495.513-.873.675c-.372.156-.813.234-1.323.234zm8.778 0c-.612 0-1.149-.135-1.611-.405-.456-.27-.81-.648-1.062-1.134-.252-.492-.378-1.068-.378-1.728 0-.666.126-1.242.378-1.728a2.71 2.71 0 0 1 1.062-1.125c.456-.27.993-.405 1.611-.405s1.155.135 1.611.405a2.71 2.71 0 0 1 1.062 1.125c.252.486.378 1.059.378 1.719 0 .666-.126 1.245-.378 1.737-.252.486-.606.864-1.062 1.134s-.993.405-1.611.405zm0-.99c.582 0 1.035-.201 1.359-.603s.486-.96.486-1.674c0-.72-.162-1.278-.486-1.674-.318-.396-.771-.594-1.359-.594-.582 0-1.035.198-1.359.594s-.486.954-.486 1.674c0 .714.162 1.272.486 1.674s.777.603 1.359.603zm4.763.972c-.36 0-.54-.186-.54-.558v-5.355c0-.186.045-.327.135-.423.096-.102.219-.153.369-.153.138 0 .24.027.306.081.072.048.156.132.252.252l3.213 4.167v-3.951c0-.366.18-.549.54-.549.354 0 .531.183.531.549v5.4c0 .168-.042.3-.126.396a.43.43 0 0 1-.342.144c-.138 0-.249-.027-.333-.081-.078-.054-.165-.141-.261-.261l-3.213-4.176v3.96c0 .372-.177.558-.531.558zM68.7 41c-.468 0-.822-.12-1.062-.36-.24-.252-.36-.606-.36-1.062v-9.882c0-.456.12-.804.36-1.044.24-.252.588-.378 1.044-.378.924 0 1.386.474 1.386 1.422v8.946h4.824c.804 0 1.206.39 1.206 1.17 0 .792-.402 1.188-1.206 1.188H68.7zm10.21-10.458c-.504 0-.894-.114-1.17-.342-.264-.24-.396-.576-.396-1.008 0-.444.132-.78.396-1.008.276-.24.666-.36 1.17-.36 1.032 0 1.548.456 1.548 1.368 0 .9-.516 1.35-1.548 1.35zm0 10.602c-.444 0-.786-.126-1.026-.378-.228-.264-.342-.63-.342-1.098v-6.156c0-.996.456-1.494 1.368-1.494.432 0 .762.132.99.396.24.252.36.618.36 1.098v6.156c0 .468-.114.834-.342 1.098-.228.252-.564.378-1.008.378zm4.996.018c-.912 0-1.368-.462-1.368-1.386v-6.39c0-.912.444-1.368 1.332-1.368s1.332.456 1.332 1.368v.072c.3-.48.702-.846 1.206-1.098a3.73 3.73 0 0 1 1.692-.378c1.044 0 1.824.306 2.34.918.516.6.774 1.53.774 2.79v4.086c0 .924-.456 1.386-1.368 1.386-.432 0-.768-.12-1.008-.36-.228-.24-.342-.582-.342-1.026v-3.96c0-.612-.114-1.05-.342-1.314-.228-.276-.564-.414-1.008-.414-.576 0-1.038.18-1.386.54-.336.36-.504.84-.504 1.44v3.708c0 .924-.45 1.386-1.35 1.386zm10.885 0c-.912 0-1.368-.462-1.368-1.386V29.534c0-.924.456-1.386 1.368-1.386.9 0 1.35.462 1.35 1.386v6.282h.036l2.61-2.898c.264-.3.504-.522.72-.666.216-.156.516-.234.9-.234.372 0 .66.096.864.288.204.18.306.414.306.702 0 .276-.12.546-.36.81l-2.304 2.574 2.61 3.006c.228.288.324.57.288.846-.024.264-.144.486-.36.666-.216.168-.492.252-.828.252-.42 0-.75-.078-.99-.234-.228-.156-.474-.396-.738-.72l-2.718-3.024h-.036v2.592c0 .924-.45 1.386-1.35 1.386zm13.298.036c-1.044 0-1.944-.186-2.7-.558a4.21 4.21 0 0 1-1.728-1.602c-.396-.696-.594-1.512-.594-2.448 0-.912.192-1.71.576-2.394a4.24 4.24 0 0 1 1.602-1.62c.684-.396 1.47-.594 2.358-.594 1.284 0 2.304.408 3.06 1.224.756.804 1.134 1.896 1.134 3.276 0 .456-.282.684-.846.684h-5.292c.096.696.348 1.206.756 1.53.42.312.996.468 1.728.468a5.97 5.97 0 0 0 .972-.09 4.11 4.11 0 0 0 1.062-.36c.348-.168.642-.198.882-.09a.81.81 0 0 1 .486.504c.096.24.096.492 0 .756-.084.252-.282.462-.594.63-.42.228-.888.396-1.404.504a6.29 6.29 0 0 1-1.458.18zm-.378-7.416c-.576 0-1.044.174-1.404.522-.348.348-.564.834-.648 1.458h3.888c-.072-1.32-.684-1.98-1.836-1.98zm9.285 7.416c-.768 0-1.446-.186-2.034-.558-.576-.384-1.026-.918-1.35-1.602-.324-.696-.486-1.518-.486-2.466s.162-1.764.486-2.448.774-1.212 1.35-1.584c.588-.372 1.266-.558 2.034-.558a3.5 3.5 0 0 1 1.62.378c.492.252.864.588 1.116 1.008v-3.834c0-.924.45-1.386 1.35-1.386.912 0 1.368.462 1.368 1.386v10.242c0 .924-.45 1.386-1.35 1.386s-1.35-.462-1.35-1.386v-.054c-.24.456-.612.816-1.116 1.08-.492.264-1.038.396-1.638.396zm.81-2.034a1.76 1.76 0 0 0 1.404-.63c.372-.42.558-1.074.558-1.962 0-.876-.186-1.518-.558-1.926a1.76 1.76 0 0 0-1.404-.63 1.76 1.76 0 0 0-1.404.63c-.36.408-.54 1.05-.54 1.926 0 .888.18 1.542.54 1.962a1.76 1.76 0 0 0 1.404.63zm8.557 1.998c-.456 0-.804-.126-1.044-.378s-.36-.606-.36-1.062V29.588c0-.96.468-1.44 1.404-1.44.924 0 1.386.48 1.386 1.44v10.134c0 .96-.462 1.44-1.386 1.44zm5.253 0c-.912 0-1.368-.462-1.368-1.386v-6.39c0-.912.444-1.368 1.332-1.368s1.332.456 1.332 1.368v.072c.3-.48.702-.846 1.206-1.098a3.73 3.73 0 0 1 1.692-.378c1.044 0 1.824.306 2.34.918.516.6.774 1.53.774 2.79v4.086c0 .924-.456 1.386-1.368 1.386-.432 0-.768-.12-1.008-.36-.228-.24-.342-.582-.342-1.026v-3.96c0-.612-.114-1.05-.342-1.314-.228-.276-.564-.414-1.008-.414-.576 0-1.038.18-1.386.54-.336.36-.504.84-.504 1.44v3.708c0 .924-.45 1.386-1.35 1.386zM41.9 12H19.5a3.5 3.5 0 0 0-3.5 3.5v22.4a3.5 3.5 0 0 0 3.5 3.5h22.4a3.5 3.5 0 0 0 3.5-3.5V15.5a3.5 3.5 0 0 0-3.5-3.5zM25.1 23.2v13.3h-4.2V23.2h4.2zm-4.2-3.871c0-.98.84-1.729 2.1-1.729s2.051.749 2.1 1.729c0 .98-.784 1.771-2.1 1.771-1.26 0-2.1-.791-2.1-1.771zM40.5 36.5h-4.2v-7c0-1.4-.7-2.8-2.45-2.828h-.056c-1.694 0-2.394 1.442-2.394 2.828v7h-4.2V23.2h4.2v1.792s1.351-1.792 4.067-1.792c2.779 0 5.033 1.911 5.033 5.782V36.5z" fill="#000"/></svg>