<svg xmlns="http://www.w3.org/2000/svg" width="156" height="55" fill="none" xmlns:v="https://vecta.io/nano"><path d="M149.124 1H6.876C3.631 1 1 5.253 1 10.5v34C1 49.747 3.631 54 6.876 54h142.249c3.245 0 5.876-4.253 5.876-9.5v-34c0-5.247-2.631-9.5-5.876-9.5z" fill="#fffffc" stroke="#000"/><path d="M67.305 22c-.408 0-.612-.204-.612-.612v-5.121c0-.408.204-.612.612-.612h2.16c.666 0 1.182.147 1.548.441.366.288.549.69.549 1.206 0 .342-.087.636-.261.882s-.414.426-.72.54c.36.102.639.282.837.54.204.252.306.573.306.963 0 .564-.192 1.002-.576 1.314-.378.306-.906.459-1.584.459h-2.259zm.495-3.654h1.467c.786 0 1.179-.303 1.179-.909s-.393-.909-1.179-.909H67.8v1.818zm0 2.781h1.62c.792 0 1.188-.318 1.188-.954s-.396-.954-1.188-.954H67.8v1.908zm6.7.945c-.384 0-.576-.198-.576-.594v-5.301c0-.396.192-.594.576-.594s.576.198.576.594v5.301c0 .396-.192.594-.576.594zm0-7.173c-.39 0-.585-.189-.585-.567 0-.372.195-.558.585-.558s.585.186.585.558c0 .378-.195.567-.585.567zM77.76 22c-.198 0-.348-.051-.45-.153-.096-.108-.138-.246-.126-.414.018-.168.093-.342.225-.522l3.168-4.293H77.67c-.342 0-.513-.162-.513-.486 0-.318.171-.477.513-.477h3.726c.198 0 .345.054.441.162.102.102.147.237.135.405-.012.162-.087.336-.225.522l-3.168 4.293h3.042c.342 0 .513.159.513.477 0 .324-.171.486-.513.486H77.76zm6.799.072c-.384 0-.576-.198-.576-.594v-5.301c0-.396.192-.594.576-.594s.576.198.576.594v5.301c0 .396-.192.594-.576.594zm0-7.173c-.39 0-.585-.189-.585-.567 0-.372.195-.558.585-.558s.585.186.585.558c0 .378-.195.567-.585.567zm8.583 7.173c-.384 0-.576-.198-.576-.594v-4.86h-1.755c-.33 0-.495-.162-.495-.486 0-.318.165-.477.495-.477h4.662c.33 0 .495.159.495.477 0 .324-.165.486-.495.486h-1.755v4.86c0 .396-.192.594-.576.594zm3.879 0c-.21 0-.36-.072-.45-.216s-.087-.318.009-.522l2.376-5.265c.078-.174.171-.297.279-.369a.67.67 0 0 1 .387-.117c.138 0 .261.039.369.117a.81.81 0 0 1 .288.369l2.385 5.265c.096.21.102.387.018.531-.084.138-.228.207-.432.207-.168 0-.3-.039-.396-.117-.09-.084-.171-.21-.243-.378l-.45-1.044h-3.096l-.441 1.044c-.078.174-.159.3-.243.378s-.204.117-.36.117zm2.583-5.166l-1.143 2.709h2.304l-1.143-2.709h-.018zm5.662 5.166c-.384 0-.576-.198-.576-.594v-5.31c0-.39.192-.585.576-.585s.576.195.576.585v2.295h.018l2.583-2.592a1.13 1.13 0 0 1 .288-.216c.096-.048.204-.072.324-.072.174 0 .297.045.369.135.078.09.108.195.09.315-.012.12-.069.231-.171.333l-2.367 2.34 2.493 2.529a.56.56 0 0 1 .198.378c.006.132-.036.243-.126.333-.084.084-.21.126-.378.126-.144 0-.261-.03-.351-.09-.084-.06-.183-.147-.297-.261l-2.655-2.655h-.018v2.412c0 .396-.192.594-.576.594zm7.02 0c-.384 0-.576-.198-.576-.594v-5.301c0-.396.192-.594.576-.594s.576.198.576.594v5.301c0 .396-.192.594-.576.594zm0-7.173c-.39 0-.585-.189-.585-.567 0-.372.195-.558.585-.558s.585.186.585.558c0 .378-.195.567-.585.567zm3.575 7.173c-.384 0-.576-.198-.576-.594V16.24c0-.39.195-.585.585-.585h2.169c.696 0 1.233.174 1.611.522s.567.834.567 1.458-.189 1.113-.567 1.467c-.378.348-.915.522-1.611.522h-1.602v1.854c0 .396-.192.594-.576.594zm.576-3.357h1.422c.828 0 1.242-.36 1.242-1.08 0-.714-.414-1.071-1.242-1.071h-1.422v2.151zM126.283 22c-.408 0-.612-.204-.612-.612v-5.121c0-.408.204-.612.612-.612h3.213c.312 0 .468.15.468.45 0 .312-.156.468-.468.468h-2.718v1.746h2.52c.312 0 .468.153.468.459s-.156.459-.468.459h-2.52v1.845h2.718c.312 0 .468.153.468.459s-.156.459-.468.459h-3.213zm7.855.072c-.384 0-.576-.198-.576-.594v-4.86h-1.755c-.33 0-.495-.162-.495-.486 0-.318.165-.477.495-.477h4.662c.33 0 .495.159.495.477 0 .324-.165.486-.495.486h-1.755v4.86c0 .396-.192.594-.576.594zM68.7 41c-.468 0-.822-.12-1.062-.36-.24-.252-.36-.606-.36-1.062v-9.882c0-.456.12-.804.36-1.044.24-.252.588-.378 1.044-.378.924 0 1.386.474 1.386 1.422v8.946h4.824c.804 0 1.206.39 1.206 1.17 0 .792-.402 1.188-1.206 1.188H68.7zm10.21-10.458c-.504 0-.894-.114-1.17-.342-.264-.24-.396-.576-.396-1.008 0-.444.132-.78.396-1.008.276-.24.666-.36 1.17-.36 1.032 0 1.548.456 1.548 1.368 0 .9-.516 1.35-1.548 1.35zm0 10.602c-.444 0-.786-.126-1.026-.378-.228-.264-.342-.63-.342-1.098v-6.156c0-.996.456-1.494 1.368-1.494.432 0 .762.132.99.396.24.252.36.618.36 1.098v6.156c0 .468-.114.834-.342 1.098-.228.252-.564.378-1.008.378zm4.996.018c-.912 0-1.368-.462-1.368-1.386v-6.39c0-.912.444-1.368 1.332-1.368s1.332.456 1.332 1.368v.072c.3-.48.702-.846 1.206-1.098a3.73 3.73 0 0 1 1.692-.378c1.044 0 1.824.306 2.34.918.516.6.774 1.53.774 2.79v4.086c0 .924-.456 1.386-1.368 1.386-.432 0-.768-.12-1.008-.36-.228-.24-.342-.582-.342-1.026v-3.96c0-.612-.114-1.05-.342-1.314-.228-.276-.564-.414-1.008-.414-.576 0-1.038.18-1.386.54-.336.36-.504.84-.504 1.44v3.708c0 .924-.45 1.386-1.35 1.386zm10.885 0c-.912 0-1.368-.462-1.368-1.386V29.534c0-.924.456-1.386 1.368-1.386.9 0 1.35.462 1.35 1.386v6.282h.036l2.61-2.898c.264-.3.504-.522.72-.666.216-.156.516-.234.9-.234.372 0 .66.096.864.288.204.18.306.414.306.702 0 .276-.12.546-.36.81l-2.304 2.574 2.61 3.006c.228.288.324.57.288.846-.024.264-.144.486-.36.666-.216.168-.492.252-.828.252-.42 0-.75-.078-.99-.234-.228-.156-.474-.396-.738-.72l-2.718-3.024h-.036v2.592c0 .924-.45 1.386-1.35 1.386zm13.298.036c-1.044 0-1.944-.186-2.7-.558a4.21 4.21 0 0 1-1.728-1.602c-.396-.696-.594-1.512-.594-2.448 0-.912.192-1.71.576-2.394a4.24 4.24 0 0 1 1.602-1.62c.684-.396 1.47-.594 2.358-.594 1.284 0 2.304.408 3.06 1.224.756.804 1.134 1.896 1.134 3.276 0 .456-.282.684-.846.684h-5.292c.096.696.348 1.206.756 1.53.42.312.996.468 1.728.468a5.97 5.97 0 0 0 .972-.09 4.11 4.11 0 0 0 1.062-.36c.348-.168.642-.198.882-.09a.81.81 0 0 1 .486.504c.096.24.096.492 0 .756-.084.252-.282.462-.594.63-.42.228-.888.396-1.404.504a6.29 6.29 0 0 1-1.458.18zm-.378-7.416c-.576 0-1.044.174-1.404.522-.348.348-.564.834-.648 1.458h3.888c-.072-1.32-.684-1.98-1.836-1.98zm9.285 7.416c-.768 0-1.446-.186-2.034-.558-.576-.384-1.026-.918-1.35-1.602-.324-.696-.486-1.518-.486-2.466s.162-1.764.486-2.448.774-1.212 1.35-1.584c.588-.372 1.266-.558 2.034-.558a3.5 3.5 0 0 1 1.62.378c.492.252.864.588 1.116 1.008v-3.834c0-.924.45-1.386 1.35-1.386.912 0 1.368.462 1.368 1.386v10.242c0 .924-.45 1.386-1.35 1.386s-1.35-.462-1.35-1.386v-.054c-.24.456-.612.816-1.116 1.08-.492.264-1.038.396-1.638.396zm.81-2.034a1.76 1.76 0 0 0 1.404-.63c.372-.42.558-1.074.558-1.962 0-.876-.186-1.518-.558-1.926a1.76 1.76 0 0 0-1.404-.63 1.76 1.76 0 0 0-1.404.63c-.36.408-.54 1.05-.54 1.926 0 .888.18 1.542.54 1.962a1.76 1.76 0 0 0 1.404.63zm8.557 1.998c-.456 0-.804-.126-1.044-.378s-.36-.606-.36-1.062V29.588c0-.96.468-1.44 1.404-1.44.924 0 1.386.48 1.386 1.44v10.134c0 .96-.462 1.44-1.386 1.44zm5.253 0c-.912 0-1.368-.462-1.368-1.386v-6.39c0-.912.444-1.368 1.332-1.368s1.332.456 1.332 1.368v.072c.3-.48.702-.846 1.206-1.098a3.73 3.73 0 0 1 1.692-.378c1.044 0 1.824.306 2.34.918.516.6.774 1.53.774 2.79v4.086c0 .924-.456 1.386-1.368 1.386-.432 0-.768-.12-1.008-.36-.228-.24-.342-.582-.342-1.026v-3.96c0-.612-.114-1.05-.342-1.314-.228-.276-.564-.414-1.008-.414-.576 0-1.038.18-1.386.54-.336.36-.504.84-.504 1.44v3.708c0 .924-.45 1.386-1.35 1.386zM41.9 12H19.5a3.5 3.5 0 0 0-3.5 3.5v22.4a3.5 3.5 0 0 0 3.5 3.5h22.4a3.5 3.5 0 0 0 3.5-3.5V15.5a3.5 3.5 0 0 0-3.5-3.5zM25.1 23.2v13.3h-4.2V23.2h4.2zm-4.2-3.871c0-.98.84-1.729 2.1-1.729s2.051.749 2.1 1.729c0 .98-.784 1.771-2.1 1.771-1.26 0-2.1-.791-2.1-1.771zM40.5 36.5h-4.2v-7c0-1.4-.7-2.8-2.45-2.828h-.056c-1.694 0-2.394 1.442-2.394 2.828v7h-4.2V23.2h4.2v1.792s1.351-1.792 4.067-1.792c2.779 0 5.033 1.911 5.033 5.782V36.5z" fill="#000"/></svg>