<svg width="32" height="32" viewBox="0 0 32 32" fill="none" xmlns="http://www.w3.org/2000/svg">
<path d="M26.9033 26.4784C25.7804 26.2486 24.7075 25.9938 23.8138 25.8152L22.3069 25.4829L22.4861 23.9504C22.4861 23.8742 22.5117 23.7974 22.5117 23.7206C22.5165 23.397 22.4555 23.0757 22.3325 22.7763L21.9753 21.9589L22.4605 21.1926C22.7415 20.733 22.8689 20.2227 22.8689 19.6351C22.8689 19.0224 22.6903 18.486 22.3581 18.0264L21.7705 17.2351L22.1545 16.3158C22.3062 15.9605 22.3842 15.5781 22.3837 15.1917C22.3837 14.6559 22.3837 13.0472 19.8557 12.0767C19.4985 11.9487 18.7834 11.7451 17.4551 11.6683L14.7229 11.4891L16.0256 9.11465C17.0729 7.22491 17.6599 5.51378 17.6599 4.31349C17.6599 3.2156 17.3021 2.24512 16.4847 1.91349C13.6506 0.687597 11.6335 2.60294 10.2033 4.95232C9.05426 6.86709 7.62415 9.31887 6.75607 11.1312C4.89193 15.0643 2.13411 17.8989 2.13411 21.8309C2.13411 25.4061 4.53411 28.2152 8.92626 29.6965C14.3145 31.5094 22.3581 31.9947 25.8572 31.9947C28.359 31.9947 29.7379 31.0242 29.7379 29.2368C29.7379 27.3727 27.9761 26.7088 26.9039 26.479L26.9033 26.4784Z" fill="#FFD338"/>
<path d="M25.7804 24.8959C22.8689 24.257 20.3665 23.7206 20.3665 23.7206C20.8006 23.4146 21.2602 22.7763 21.2602 21.9845C21.2602 21.0652 20.775 20.5288 20.3921 20.2483C20.903 19.8649 21.5924 19.1754 21.5924 17.9245C21.5924 16.5712 20.6732 15.8818 20.1879 15.5496C20.5708 15.1923 21.1072 14.4773 21.1072 13.4812C21.1072 11.7194 19.7539 10.9276 18.6554 10.4936C17.7617 10.1619 16.0762 10.0339 14.5955 10.0339C12.1693 10.0339 9.97353 10.2125 8.92626 10.2125C7.67535 10.2125 7.82836 9.57428 8.288 8.98664C8.56902 8.65501 12.1187 3.98184 12.7825 3.13937C13.2422 2.52614 13.778 1.93908 14.1871 2.1689C14.6211 2.39872 14.4425 3.47101 13.9828 4.6457C13.2928 6.48424 12.3229 7.65952 12.0931 8.06737L13.7274 9.06344C14.3657 8.27217 16.434 4.82432 16.434 2.60294C16.434 1.60686 16.0512 0.76439 15.3105 0.304754C14.5699 -0.129282 13.625 -0.103682 12.7825 0.407154C12.2205 0.73879 11.6591 1.22403 11.1738 1.83668C9.89673 3.47159 7.19011 6.89268 6.19404 8.16977C4.76393 10.0339 5.42836 12.3321 8.46662 12.3321C9.53949 12.3321 13.038 12.0767 14.3913 12.0767C15.9488 12.0767 16.7151 12.1535 17.2509 12.2297C18.2726 12.3833 18.8602 12.8429 18.8602 13.4556C18.8602 13.8896 18.6554 14.1962 18.2982 14.4517C17.9404 14.7071 17.6087 15.0899 17.6087 15.6264C17.6087 16.2646 18.1964 16.52 18.5792 16.7754C19.09 17.1071 19.3961 17.3369 19.3961 17.8733C19.3961 18.3586 19.0388 18.6396 18.6298 18.9456C18.2982 19.2016 17.8641 19.4821 17.8641 20.0691C17.8641 20.6056 18.247 20.861 18.5024 21.0652C18.7578 21.2694 19.0388 21.4992 19.0388 21.9333C19.0388 22.3673 18.8346 22.5721 18.3232 22.8781C17.9153 23.108 17.3283 23.5426 17.3283 24.1552C17.3283 24.8447 17.8129 25.1507 18.4 25.3043C19.8045 25.636 23.9924 26.5302 25.4225 26.8618C25.8822 26.9642 26.3418 27.1173 26.3418 27.5001C26.3418 27.8835 25.7292 28.0621 24.8611 28.0621C21.8473 28.0621 13.472 27.4495 8.54342 25.7384C5.19796 24.6149 3.35942 22.5465 3.35942 20.0697C3.35942 17.9245 4.78953 16.0092 6.34764 14.9113L4.94313 13.4806C2.69556 15.0387 1.16364 17.5155 1.16364 20.1203C1.16364 23.1341 2.95098 26.198 7.87956 27.8579C13.1142 29.6197 21.056 30.1561 24.7587 30.1561C27.2867 30.1561 28.5126 29.1088 28.5126 27.5263C28.487 26.0194 27.2617 25.2019 25.7798 24.8959H25.7804Z" fill="#222222"/>
</svg>
