<svg xmlns="http://www.w3.org/2000/svg" width="156" height="55" fill="none" xmlns:v="https://vecta.io/nano"><path d="M149.124 1H6.876C3.631 1 1 5.253 1 10.5v34C1 49.747 3.631 54 6.876 54h142.249c3.245 0 5.876-4.253 5.876-9.5v-34c0-5.247-2.631-9.5-5.876-9.5z" fill="#fffffc" stroke="#000"/><path d="M33.5 45C43.165 45 51 37.165 51 27.5S43.165 10 33.5 10 16 17.835 16 27.5 23.835 45 33.5 45z" fill="#000"/><path fill-rule="evenodd" d="M23.922 27.315l10.206-4.396 6.528-2.384c.145-.003.468.033.678.203.177.144.226.338.249.474s.052.447.029.689c-.263 2.767-1.403 9.482-1.983 12.581-.245 1.312-.728 1.751-1.196 1.794-1.016.093-1.788-.672-2.772-1.317l-3.905-2.623c-1.728-1.139-.608-1.764.377-2.787.258-.268 4.735-4.34 4.822-4.71.011-.046.021-.218-.081-.309s-.253-.06-.362-.035c-.154.035-2.615 1.661-7.382 4.879-.698.48-1.331.713-1.898.701-.625-.014-1.827-.353-2.72-.644-1.096-.356-1.967-.545-1.891-1.15.04-.315.474-.637 1.302-.967z" fill="#fff"/><path d="M67.305 22c-.408 0-.612-.204-.612-.612v-5.121c0-.408.204-.612.612-.612h2.16c.666 0 1.182.147 1.548.441.366.288.549.69.549 1.206 0 .342-.087.636-.261.882s-.414.426-.72.54c.36.102.639.282.837.54.204.252.306.573.306.963 0 .564-.192 1.002-.576 1.314-.378.306-.906.459-1.584.459h-2.259zm.495-3.654h1.467c.786 0 1.179-.303 1.179-.909s-.393-.909-1.179-.909H67.8v1.818zm0 2.781h1.62c.792 0 1.188-.318 1.188-.954s-.396-.954-1.188-.954H67.8v1.908zm6.7.945c-.384 0-.576-.198-.576-.594v-5.301c0-.396.192-.594.576-.594s.576.198.576.594v5.301c0 .396-.192.594-.576.594zm0-7.173c-.39 0-.585-.189-.585-.567 0-.372.195-.558.585-.558s.585.186.585.558c0 .378-.195.567-.585.567zM77.76 22c-.198 0-.348-.051-.45-.153-.096-.108-.138-.246-.126-.414.018-.168.093-.342.225-.522l3.168-4.293H77.67c-.342 0-.513-.162-.513-.486 0-.318.171-.477.513-.477h3.726c.198 0 .345.054.441.162.102.102.147.237.135.405-.012.162-.087.336-.225.522l-3.168 4.293h3.042c.342 0 .513.159.513.477 0 .324-.171.486-.513.486H77.76zm6.799.072c-.384 0-.576-.198-.576-.594v-5.301c0-.396.192-.594.576-.594s.576.198.576.594v5.301c0 .396-.192.594-.576.594zm0-7.173c-.39 0-.585-.189-.585-.567 0-.372.195-.558.585-.558s.585.186.585.558c0 .378-.195.567-.585.567zm8.583 7.173c-.384 0-.576-.198-.576-.594v-4.86h-1.755c-.33 0-.495-.162-.495-.486 0-.318.165-.477.495-.477h4.662c.33 0 .495.159.495.477 0 .324-.165.486-.495.486h-1.755v4.86c0 .396-.192.594-.576.594zm3.879 0c-.21 0-.36-.072-.45-.216s-.087-.318.009-.522l2.376-5.265c.078-.174.171-.297.279-.369a.67.67 0 0 1 .387-.117c.138 0 .261.039.369.117a.81.81 0 0 1 .288.369l2.385 5.265c.096.21.102.387.018.531-.084.138-.228.207-.432.207-.168 0-.3-.039-.396-.117-.09-.084-.171-.21-.243-.378l-.45-1.044h-3.096l-.441 1.044c-.078.174-.159.3-.243.378s-.204.117-.36.117zm2.583-5.166l-1.143 2.709h2.304l-1.143-2.709h-.018zm5.662 5.166c-.384 0-.576-.198-.576-.594v-5.31c0-.39.192-.585.576-.585s.576.195.576.585v2.295h.018l2.583-2.592a1.13 1.13 0 0 1 .288-.216c.096-.048.204-.072.324-.072.174 0 .297.045.369.135.078.09.108.195.09.315-.012.12-.069.231-.171.333l-2.367 2.34 2.493 2.529a.56.56 0 0 1 .198.378c.006.132-.036.243-.126.333-.084.084-.21.126-.378.126-.144 0-.261-.03-.351-.09-.084-.06-.183-.147-.297-.261l-2.655-2.655h-.018v2.412c0 .396-.192.594-.576.594zm7.02 0c-.384 0-.576-.198-.576-.594v-5.301c0-.396.192-.594.576-.594s.576.198.576.594v5.301c0 .396-.192.594-.576.594zm0-7.173c-.39 0-.585-.189-.585-.567 0-.372.195-.558.585-.558s.585.186.585.558c0 .378-.195.567-.585.567zm3.575 7.173c-.384 0-.576-.198-.576-.594V16.24c0-.39.195-.585.585-.585h2.169c.696 0 1.233.174 1.611.522s.567.834.567 1.458-.189 1.113-.567 1.467c-.378.348-.915.522-1.611.522h-1.602v1.854c0 .396-.192.594-.576.594zm.576-3.357h1.422c.828 0 1.242-.36 1.242-1.08 0-.714-.414-1.071-1.242-1.071h-1.422v2.151zM126.283 22c-.408 0-.612-.204-.612-.612v-5.121c0-.408.204-.612.612-.612h3.213c.312 0 .468.15.468.45 0 .312-.156.468-.468.468h-2.718v1.746h2.52c.312 0 .468.153.468.459s-.156.459-.468.459h-2.52v1.845h2.718c.312 0 .468.153.468.459s-.156.459-.468.459h-3.213zm7.855.072c-.384 0-.576-.198-.576-.594v-4.86h-1.755c-.33 0-.495-.162-.495-.486 0-.318.165-.477.495-.477h4.662c.33 0 .495.159.495.477 0 .324-.165.486-.495.486h-1.755v4.86c0 .396-.192.594-.576.594zm-62.432 19.09c-.456 0-.804-.126-1.044-.378s-.36-.606-.36-1.062v-9.108h-3.186c-.78 0-1.17-.384-1.17-1.152s.39-1.152 1.17-1.152h9.162c.78 0 1.17.384 1.17 1.152s-.39 1.152-1.17 1.152h-3.186v9.108c0 .456-.12.81-.36 1.062-.228.252-.57.378-1.026.378zm8.977.036c-1.044 0-1.944-.186-2.7-.558a4.21 4.21 0 0 1-1.728-1.602c-.396-.696-.594-1.512-.594-2.448 0-.912.192-1.71.576-2.394a4.24 4.24 0 0 1 1.602-1.62c.684-.396 1.47-.594 2.358-.594 1.284 0 2.304.408 3.06 1.224.756.804 1.134 1.896 1.134 3.276 0 .456-.282.684-.846.684h-5.292c.096.696.348 1.206.756 1.53.42.312.996.468 1.728.468a5.97 5.97 0 0 0 .972-.09 4.11 4.11 0 0 0 1.062-.36c.348-.168.642-.198.882-.09a.81.81 0 0 1 .486.504c.096.24.096.492 0 .756-.084.252-.282.462-.594.63-.42.228-.888.396-1.404.504a6.29 6.29 0 0 1-1.458.18zm-.378-7.416c-.576 0-1.044.174-1.404.522-.348.348-.564.834-.648 1.458h3.888c-.072-1.32-.684-1.98-1.836-1.98zm7.953 7.416c-2.124 0-3.186-1.182-3.186-3.546v-8.118c0-.924.456-1.386 1.368-1.386.9 0 1.35.462 1.35 1.386v8.01c0 .492.102.858.306 1.098.216.228.498.342.846.342a1.91 1.91 0 0 0 .27-.018c.096-.012.186-.018.27-.018.192-.012.324.048.396.18.084.132.126.402.126.81 0 .696-.294 1.092-.882 1.188l-.414.036a2.96 2.96 0 0 1-.45.036zm6.41 0c-1.044 0-1.944-.186-2.7-.558a4.21 4.21 0 0 1-1.728-1.602c-.396-.696-.594-1.512-.594-2.448 0-.912.192-1.71.576-2.394a4.24 4.24 0 0 1 1.602-1.62c.684-.396 1.47-.594 2.358-.594 1.284 0 2.304.408 3.06 1.224.756.804 1.134 1.896 1.134 3.276 0 .456-.282.684-.846.684h-5.292c.096.696.348 1.206.756 1.53.42.312.996.468 1.728.468a5.97 5.97 0 0 0 .972-.09 4.11 4.11 0 0 0 1.062-.36c.348-.168.642-.198.882-.09a.81.81 0 0 1 .486.504c.096.24.096.492 0 .756-.084.252-.282.462-.594.63-.42.228-.888.396-1.404.504a6.29 6.29 0 0 1-1.458.18zm-.378-7.416c-.576 0-1.044.174-1.404.522-.348.348-.564.834-.648 1.458h3.888c-.072-1.32-.684-1.98-1.836-1.98zm9.015 10.656a10.25 10.25 0 0 1-1.854-.162 6.62 6.62 0 0 1-1.584-.486c-.348-.144-.57-.348-.666-.612s-.096-.522 0-.774c.108-.252.27-.444.486-.576.228-.12.48-.12.756 0 .528.24 1.014.396 1.458.468.456.072.846.108 1.17.108 1.536 0 2.304-.708 2.304-2.124v-1.008c-.24.456-.618.822-1.134 1.098a3.53 3.53 0 0 1-1.692.414c-.792 0-1.482-.18-2.07-.54-.588-.372-1.044-.888-1.368-1.548s-.486-1.434-.486-2.322c0-.876.162-1.644.486-2.304s.78-1.17 1.368-1.53c.588-.372 1.278-.558 2.07-.558.612 0 1.17.132 1.674.396s.876.612 1.116 1.044v-.036c0-.444.114-.78.342-1.008.24-.24.576-.36 1.008-.36.888 0 1.332.456 1.332 1.368v6.588c0 1.488-.402 2.604-1.206 3.348s-1.974 1.116-3.51 1.116zm.054-5.688c.6 0 1.08-.21 1.44-.63.372-.42.558-1.002.558-1.746s-.186-1.32-.558-1.728c-.36-.42-.84-.63-1.44-.63-.612 0-1.098.21-1.458.63-.36.408-.54.984-.54 1.728s.18 1.326.54 1.746.846.63 1.458.63zm7.277 2.412c-.936 0-1.404-.462-1.404-1.386v-6.39c0-.912.444-1.368 1.331-1.368s1.333.456 1.333 1.368v.324c.432-1.068 1.326-1.644 2.682-1.728.3-.024.528.054.684.234.168.168.258.45.27.846.024.372-.054.666-.234.882-.168.216-.456.348-.864.396l-.414.036c-1.344.132-2.016.816-2.016 2.052v3.348c0 .924-.456 1.386-1.368 1.386zm8.014.036c-.66 0-1.242-.126-1.746-.378s-.906-.594-1.206-1.026a2.57 2.57 0 0 1-.432-1.458c0-.636.168-1.146.504-1.53s.882-.654 1.638-.81c.756-.168 1.758-.252 3.006-.252h.648v-.306c0-.528-.12-.9-.36-1.116-.24-.228-.648-.342-1.224-.342-.324 0-.678.042-1.062.126-.384.072-.798.198-1.242.378-.336.144-.618.156-.846.036a.94.94 0 0 1-.45-.576c-.072-.264-.054-.528.054-.792.12-.264.348-.456.684-.576.564-.216 1.092-.366 1.584-.45.504-.096.966-.144 1.386-.144 1.368 0 2.388.312 3.06.936.672.612 1.008 1.566 1.008 2.862v3.996c0 .924-.42 1.386-1.26 1.386-.852 0-1.278-.462-1.278-1.386v-.108c-.18.468-.486.84-.918 1.116-.42.276-.936.414-1.548.414zm.612-1.818c.504 0 .93-.174 1.278-.522s.522-.798.522-1.35v-.36h-.63c-.924 0-1.578.084-1.962.252-.384.156-.576.432-.576.828a1.09 1.09 0 0 0 .342.828c.24.216.582.324 1.026.324zm6.923 1.782c-.912 0-1.368-.462-1.368-1.386v-6.39c0-.912.444-1.368 1.332-1.368s1.332.456 1.332 1.368v.054c.264-.456.624-.81 1.08-1.062.468-.264 1.008-.396 1.62-.396.624 0 1.152.138 1.584.414.444.276.78.696 1.008 1.26a2.92 2.92 0 0 1 1.188-1.224c.528-.3 1.11-.45 1.746-.45 1.008 0 1.758.306 2.25.918.492.6.738 1.53.738 2.79v4.086c0 .444-.12.786-.36 1.026-.228.24-.558.36-.99.36-.912 0-1.368-.462-1.368-1.386V35.78c0-.588-.096-1.014-.288-1.278-.18-.276-.492-.414-.936-.414-.516 0-.918.18-1.206.54s-.432.87-.432 1.53v3.618c0 .924-.45 1.386-1.35 1.386-.432 0-.768-.12-1.008-.36s-.36-.582-.36-1.026V35.78c0-.588-.096-1.014-.288-1.278-.192-.276-.504-.414-.936-.414-.516 0-.918.18-1.206.54s-.432.87-.432 1.53v3.618c0 .924-.45 1.386-1.35 1.386z" fill="#000"/></svg>