<svg width="156" height="55" viewBox="0 0 156 55" fill="none" xmlns="http://www.w3.org/2000/svg">
<path d="M149.124 1H6.8755C3.63055 1 1 5.25329 1 10.5V44.5C1 49.7467 3.63055 54 6.8755 54H149.124C152.369 54 155 49.7467 155 44.5V10.5C155 5.25329 152.369 1 149.124 1Z" fill="#FFFFFC" stroke="black"/>
<path d="M67.287 22.072C66.891 22.072 66.693 21.868 66.693 21.46V16.267C66.693 15.859 66.897 15.655 67.305 15.655H70.446C70.758 15.655 70.914 15.805 70.914 16.105C70.914 16.417 70.758 16.573 70.446 16.573H67.845V18.364H70.257C70.569 18.364 70.725 18.514 70.725 18.814C70.725 19.126 70.569 19.282 70.257 19.282H67.845V21.46C67.845 21.868 67.659 22.072 67.287 22.072ZM74.4765 22.09C73.8645 22.09 73.3275 21.955 72.8655 21.685C72.4095 21.415 72.0555 21.037 71.8035 20.551C71.5515 20.059 71.4255 19.483 71.4255 18.823C71.4255 18.157 71.5515 17.581 71.8035 17.095C72.0555 16.609 72.4095 16.234 72.8655 15.97C73.3215 15.7 73.8585 15.565 74.4765 15.565C75.0945 15.565 75.6315 15.7 76.0875 15.97C76.5435 16.234 76.8975 16.609 77.1495 17.095C77.4015 17.581 77.5275 18.154 77.5275 18.814C77.5275 19.48 77.4015 20.059 77.1495 20.551C76.8975 21.037 76.5435 21.415 76.0875 21.685C75.6315 21.955 75.0945 22.09 74.4765 22.09ZM74.4765 21.1C75.0585 21.1 75.5115 20.899 75.8355 20.497C76.1595 20.095 76.3215 19.537 76.3215 18.823C76.3215 18.103 76.1595 17.545 75.8355 17.149C75.5175 16.753 75.0645 16.555 74.4765 16.555C73.8945 16.555 73.4415 16.753 73.1175 17.149C72.7935 17.545 72.6315 18.103 72.6315 18.823C72.6315 19.537 72.7935 20.095 73.1175 20.497C73.4415 20.899 73.8945 21.1 74.4765 21.1ZM79.2839 22C78.8939 22 78.6989 21.802 78.6989 21.406V16.213C78.6989 15.823 78.8909 15.628 79.2749 15.628C79.6589 15.628 79.8509 15.823 79.8509 16.213V21.019H82.4609C82.7969 21.019 82.9649 21.181 82.9649 21.505C82.9649 21.835 82.7969 22 82.4609 22H79.2839ZM84.3376 22C83.9476 22 83.7526 21.802 83.7526 21.406V16.213C83.7526 15.823 83.9446 15.628 84.3286 15.628C84.7126 15.628 84.9046 15.823 84.9046 16.213V21.019H87.5146C87.8506 21.019 88.0186 21.181 88.0186 21.505C88.0186 21.835 87.8506 22 87.5146 22H84.3376ZM91.3075 22.09C90.6955 22.09 90.1585 21.955 89.6965 21.685C89.2405 21.415 88.8865 21.037 88.6345 20.551C88.3825 20.059 88.2565 19.483 88.2565 18.823C88.2565 18.157 88.3825 17.581 88.6345 17.095C88.8865 16.609 89.2405 16.234 89.6965 15.97C90.1525 15.7 90.6895 15.565 91.3075 15.565C91.9255 15.565 92.4625 15.7 92.9185 15.97C93.3745 16.234 93.7285 16.609 93.9805 17.095C94.2325 17.581 94.3585 18.154 94.3585 18.814C94.3585 19.48 94.2325 20.059 93.9805 20.551C93.7285 21.037 93.3745 21.415 92.9185 21.685C92.4625 21.955 91.9255 22.09 91.3075 22.09ZM91.3075 21.1C91.8895 21.1 92.3425 20.899 92.6665 20.497C92.9905 20.095 93.1525 19.537 93.1525 18.823C93.1525 18.103 92.9905 17.545 92.6665 17.149C92.3485 16.753 91.8955 16.555 91.3075 16.555C90.7255 16.555 90.2725 16.753 89.9485 17.149C89.6245 17.545 89.4625 18.103 89.4625 18.823C89.4625 19.537 89.6245 20.095 89.9485 20.497C90.2725 20.899 90.7255 21.1 91.3075 21.1ZM97.6037 22.072C97.2977 22.072 97.0877 21.91 96.9737 21.586L95.0927 16.267C95.0267 16.075 95.0387 15.913 95.1287 15.781C95.2247 15.649 95.3837 15.583 95.6057 15.583C95.7677 15.583 95.8937 15.622 95.9837 15.7C96.0737 15.772 96.1457 15.889 96.1997 16.051L97.6397 20.335L99.1517 16.06C99.2657 15.742 99.4577 15.583 99.7277 15.583C99.8717 15.583 99.9857 15.622 100.07 15.7C100.154 15.778 100.226 15.901 100.286 16.069L101.771 20.398L103.256 16.051C103.31 15.895 103.382 15.778 103.472 15.7C103.562 15.622 103.685 15.583 103.841 15.583C104.033 15.583 104.174 15.649 104.264 15.781C104.354 15.913 104.366 16.075 104.3 16.267L102.401 21.595C102.341 21.757 102.263 21.877 102.167 21.955C102.071 22.033 101.942 22.072 101.78 22.072C101.618 22.072 101.489 22.033 101.393 21.955C101.297 21.877 101.219 21.754 101.159 21.586L99.6917 17.419L98.2157 21.595C98.1557 21.757 98.0777 21.877 97.9817 21.955C97.8917 22.033 97.7657 22.072 97.6037 22.072ZM110.472 22.09C109.602 22.09 108.936 21.865 108.474 21.415C108.018 20.959 107.79 20.287 107.79 19.399V16.168C107.79 15.778 107.982 15.583 108.366 15.583C108.75 15.583 108.942 15.778 108.942 16.168V19.39C108.942 19.96 109.071 20.389 109.329 20.677C109.593 20.959 109.974 21.1 110.472 21.1C111.486 21.1 111.993 20.53 111.993 19.39V16.168C111.993 15.778 112.185 15.583 112.569 15.583C112.947 15.583 113.136 15.778 113.136 16.168V19.399C113.136 20.287 112.911 20.959 112.461 21.415C112.011 21.865 111.348 22.09 110.472 22.09ZM116.666 22.09C116.264 22.09 115.871 22.045 115.487 21.955C115.109 21.865 114.779 21.73 114.497 21.55C114.359 21.46 114.275 21.349 114.245 21.217C114.215 21.085 114.224 20.962 114.272 20.848C114.326 20.728 114.407 20.647 114.515 20.605C114.629 20.557 114.758 20.578 114.902 20.668C115.166 20.824 115.445 20.938 115.739 21.01C116.033 21.082 116.342 21.118 116.666 21.118C117.14 21.118 117.485 21.04 117.701 20.884C117.917 20.722 118.025 20.515 118.025 20.263C118.025 20.053 117.947 19.888 117.791 19.768C117.641 19.648 117.38 19.549 117.008 19.471L116.018 19.264C114.89 19.024 114.326 18.445 114.326 17.527C114.326 17.131 114.431 16.786 114.641 16.492C114.851 16.198 115.142 15.97 115.514 15.808C115.886 15.646 116.315 15.565 116.801 15.565C117.161 15.565 117.503 15.61 117.827 15.7C118.151 15.79 118.442 15.922 118.7 16.096C118.82 16.18 118.892 16.285 118.916 16.411C118.94 16.531 118.925 16.645 118.871 16.753C118.817 16.855 118.73 16.927 118.61 16.969C118.496 17.005 118.361 16.978 118.205 16.888C117.983 16.762 117.758 16.672 117.53 16.618C117.302 16.564 117.056 16.537 116.792 16.537C116.378 16.537 116.054 16.624 115.82 16.798C115.586 16.972 115.469 17.2 115.469 17.482C115.469 17.698 115.541 17.872 115.685 18.004C115.829 18.13 116.075 18.229 116.423 18.301L117.404 18.508C117.998 18.634 118.439 18.832 118.727 19.102C119.021 19.372 119.168 19.732 119.168 20.182C119.168 20.56 119.066 20.893 118.862 21.181C118.658 21.469 118.367 21.694 117.989 21.856C117.617 22.012 117.176 22.09 116.666 22.09ZM125.444 22.09C124.832 22.09 124.295 21.955 123.833 21.685C123.377 21.415 123.023 21.037 122.771 20.551C122.519 20.059 122.393 19.483 122.393 18.823C122.393 18.157 122.519 17.581 122.771 17.095C123.023 16.609 123.377 16.234 123.833 15.97C124.289 15.7 124.826 15.565 125.444 15.565C126.062 15.565 126.599 15.7 127.055 15.97C127.511 16.234 127.865 16.609 128.117 17.095C128.369 17.581 128.495 18.154 128.495 18.814C128.495 19.48 128.369 20.059 128.117 20.551C127.865 21.037 127.511 21.415 127.055 21.685C126.599 21.955 126.062 22.09 125.444 22.09ZM125.444 21.1C126.026 21.1 126.479 20.899 126.803 20.497C127.127 20.095 127.289 19.537 127.289 18.823C127.289 18.103 127.127 17.545 126.803 17.149C126.485 16.753 126.032 16.555 125.444 16.555C124.862 16.555 124.409 16.753 124.085 17.149C123.761 17.545 123.599 18.103 123.599 18.823C123.599 19.537 123.761 20.095 124.085 20.497C124.409 20.899 124.862 21.1 125.444 21.1ZM130.207 22.072C129.847 22.072 129.667 21.886 129.667 21.514V16.159C129.667 15.973 129.712 15.832 129.802 15.736C129.898 15.634 130.021 15.583 130.171 15.583C130.309 15.583 130.411 15.61 130.477 15.664C130.549 15.712 130.633 15.796 130.729 15.916L133.942 20.083V16.132C133.942 15.766 134.122 15.583 134.482 15.583C134.836 15.583 135.013 15.766 135.013 16.132V21.532C135.013 21.7 134.971 21.832 134.887 21.928C134.803 22.024 134.689 22.072 134.545 22.072C134.407 22.072 134.296 22.045 134.212 21.991C134.134 21.937 134.047 21.85 133.951 21.73L130.738 17.554V21.514C130.738 21.886 130.561 22.072 130.207 22.072Z" fill="black"/>
<path d="M71.706 41.162C71.25 41.162 70.902 41.036 70.662 40.784C70.422 40.532 70.302 40.178 70.302 39.722V30.614H67.116C66.336 30.614 65.946 30.23 65.946 29.462C65.946 28.694 66.336 28.31 67.116 28.31H76.278C77.058 28.31 77.448 28.694 77.448 29.462C77.448 30.23 77.058 30.614 76.278 30.614H73.092V39.722C73.092 40.178 72.972 40.532 72.732 40.784C72.504 41.036 72.162 41.162 71.706 41.162ZM80.6832 41.198C79.6392 41.198 78.7392 41.012 77.9832 40.64C77.2392 40.256 76.6632 39.722 76.2552 39.038C75.8592 38.342 75.6612 37.526 75.6612 36.59C75.6612 35.678 75.8532 34.88 76.2372 34.196C76.6332 33.5 77.1672 32.96 77.8392 32.576C78.5232 32.18 79.3092 31.982 80.1972 31.982C81.4812 31.982 82.5012 32.39 83.2572 33.206C84.0132 34.01 84.3912 35.102 84.3912 36.482C84.3912 36.938 84.1092 37.166 83.5452 37.166H78.2532C78.3492 37.862 78.6012 38.372 79.0092 38.696C79.4292 39.008 80.0052 39.164 80.7372 39.164C81.0252 39.164 81.3492 39.134 81.7092 39.074C82.0812 39.002 82.4352 38.882 82.7712 38.714C83.1192 38.546 83.4132 38.516 83.6532 38.624C83.8932 38.72 84.0552 38.888 84.1392 39.128C84.2352 39.368 84.2352 39.62 84.1392 39.884C84.0552 40.136 83.8572 40.346 83.5452 40.514C83.1252 40.742 82.6572 40.91 82.1412 41.018C81.6372 41.138 81.1512 41.198 80.6832 41.198ZM80.3052 33.782C79.7292 33.782 79.2612 33.956 78.9012 34.304C78.5532 34.652 78.3372 35.138 78.2532 35.762H82.1412C82.0692 34.442 81.4572 33.782 80.3052 33.782ZM88.2581 41.198C86.1341 41.198 85.0721 40.016 85.0721 37.652V29.534C85.0721 28.61 85.5281 28.148 86.4401 28.148C87.3401 28.148 87.7901 28.61 87.7901 29.534V37.544C87.7901 38.036 87.8921 38.402 88.0961 38.642C88.3121 38.87 88.5941 38.984 88.9421 38.984C89.0381 38.984 89.1281 38.978 89.2121 38.966C89.3081 38.954 89.3981 38.948 89.4821 38.948C89.6741 38.936 89.8061 38.996 89.8781 39.128C89.9621 39.26 90.0041 39.53 90.0041 39.938C90.0041 40.634 89.7101 41.03 89.1221 41.126C89.0021 41.138 88.8641 41.15 88.7081 41.162C88.5521 41.186 88.4021 41.198 88.2581 41.198ZM94.6684 41.198C93.6244 41.198 92.7244 41.012 91.9684 40.64C91.2244 40.256 90.6484 39.722 90.2404 39.038C89.8444 38.342 89.6464 37.526 89.6464 36.59C89.6464 35.678 89.8384 34.88 90.2224 34.196C90.6184 33.5 91.1524 32.96 91.8244 32.576C92.5084 32.18 93.2944 31.982 94.1824 31.982C95.4664 31.982 96.4864 32.39 97.2424 33.206C97.9984 34.01 98.3764 35.102 98.3764 36.482C98.3764 36.938 98.0944 37.166 97.5304 37.166H92.2384C92.3344 37.862 92.5864 38.372 92.9944 38.696C93.4144 39.008 93.9904 39.164 94.7224 39.164C95.0104 39.164 95.3344 39.134 95.6944 39.074C96.0664 39.002 96.4204 38.882 96.7564 38.714C97.1044 38.546 97.3984 38.516 97.6384 38.624C97.8784 38.72 98.0404 38.888 98.1244 39.128C98.2204 39.368 98.2204 39.62 98.1244 39.884C98.0404 40.136 97.8424 40.346 97.5304 40.514C97.1104 40.742 96.6424 40.91 96.1264 41.018C95.6224 41.138 95.1364 41.198 94.6684 41.198ZM94.2904 33.782C93.7144 33.782 93.2464 33.956 92.8864 34.304C92.5384 34.652 92.3224 35.138 92.2384 35.762H96.1264C96.0544 34.442 95.4424 33.782 94.2904 33.782ZM103.305 44.438C102.657 44.438 102.039 44.384 101.451 44.276C100.863 44.168 100.335 44.006 99.8673 43.79C99.5193 43.646 99.2973 43.442 99.2013 43.178C99.1053 42.914 99.1053 42.656 99.2013 42.404C99.3093 42.152 99.4713 41.96 99.6873 41.828C99.9153 41.708 100.167 41.708 100.443 41.828C100.971 42.068 101.457 42.224 101.901 42.296C102.357 42.368 102.747 42.404 103.071 42.404C104.607 42.404 105.375 41.696 105.375 40.28V39.272C105.135 39.728 104.757 40.094 104.241 40.37C103.725 40.646 103.161 40.784 102.549 40.784C101.757 40.784 101.067 40.604 100.479 40.244C99.8913 39.872 99.4353 39.356 99.1113 38.696C98.7873 38.036 98.6253 37.262 98.6253 36.374C98.6253 35.498 98.7873 34.73 99.1113 34.07C99.4353 33.41 99.8913 32.9 100.479 32.54C101.067 32.168 101.757 31.982 102.549 31.982C103.161 31.982 103.719 32.114 104.223 32.378C104.727 32.642 105.099 32.99 105.339 33.422V33.386C105.339 32.942 105.453 32.606 105.681 32.378C105.921 32.138 106.257 32.018 106.689 32.018C107.577 32.018 108.021 32.474 108.021 33.386V39.974C108.021 41.462 107.619 42.578 106.815 43.322C106.011 44.066 104.841 44.438 103.305 44.438ZM103.359 38.75C103.959 38.75 104.439 38.54 104.799 38.12C105.171 37.7 105.357 37.118 105.357 36.374C105.357 35.63 105.171 35.054 104.799 34.646C104.439 34.226 103.959 34.016 103.359 34.016C102.747 34.016 102.261 34.226 101.901 34.646C101.541 35.054 101.361 35.63 101.361 36.374C101.361 37.118 101.541 37.7 101.901 38.12C102.261 38.54 102.747 38.75 103.359 38.75ZM110.636 41.162C109.7 41.162 109.232 40.7 109.232 39.776V33.386C109.232 32.474 109.676 32.018 110.563 32.018C111.452 32.018 111.896 32.474 111.896 33.386V33.71C112.328 32.642 113.222 32.066 114.578 31.982C114.878 31.958 115.106 32.036 115.262 32.216C115.43 32.384 115.52 32.666 115.532 33.062C115.556 33.434 115.478 33.728 115.298 33.944C115.13 34.16 114.842 34.292 114.434 34.34L114.02 34.376C112.676 34.508 112.004 35.192 112.004 36.428V39.776C112.004 40.7 111.548 41.162 110.636 41.162ZM118.65 41.198C117.99 41.198 117.408 41.072 116.904 40.82C116.4 40.568 115.998 40.226 115.698 39.794C115.41 39.362 115.266 38.876 115.266 38.336C115.266 37.7 115.434 37.19 115.77 36.806C116.106 36.422 116.652 36.152 117.408 35.996C118.164 35.828 119.166 35.744 120.414 35.744H121.062V35.438C121.062 34.91 120.942 34.538 120.702 34.322C120.462 34.094 120.054 33.98 119.478 33.98C119.154 33.98 118.8 34.022 118.416 34.106C118.032 34.178 117.618 34.304 117.174 34.484C116.838 34.628 116.556 34.64 116.328 34.52C116.1 34.388 115.95 34.196 115.878 33.944C115.806 33.68 115.824 33.416 115.932 33.152C116.052 32.888 116.28 32.696 116.616 32.576C117.18 32.36 117.708 32.21 118.2 32.126C118.704 32.03 119.166 31.982 119.586 31.982C120.954 31.982 121.974 32.294 122.646 32.918C123.318 33.53 123.654 34.484 123.654 35.78V39.776C123.654 40.7 123.234 41.162 122.394 41.162C121.542 41.162 121.116 40.7 121.116 39.776V39.668C120.936 40.136 120.63 40.508 120.198 40.784C119.778 41.06 119.262 41.198 118.65 41.198ZM119.262 39.38C119.766 39.38 120.192 39.206 120.54 38.858C120.888 38.51 121.062 38.06 121.062 37.508V37.148H120.432C119.508 37.148 118.854 37.232 118.47 37.4C118.086 37.556 117.894 37.832 117.894 38.228C117.894 38.564 118.008 38.84 118.236 39.056C118.476 39.272 118.818 39.38 119.262 39.38ZM126.185 41.162C125.273 41.162 124.817 40.7 124.817 39.776V33.386C124.817 32.474 125.261 32.018 126.149 32.018C127.037 32.018 127.481 32.474 127.481 33.386V33.44C127.745 32.984 128.105 32.63 128.561 32.378C129.029 32.114 129.569 31.982 130.181 31.982C130.805 31.982 131.333 32.12 131.765 32.396C132.209 32.672 132.545 33.092 132.773 33.656C133.049 33.128 133.445 32.72 133.961 32.432C134.489 32.132 135.071 31.982 135.707 31.982C136.715 31.982 137.465 32.288 137.957 32.9C138.449 33.5 138.695 34.43 138.695 35.69V39.776C138.695 40.22 138.575 40.562 138.335 40.802C138.107 41.042 137.777 41.162 137.345 41.162C136.433 41.162 135.977 40.7 135.977 39.776V35.78C135.977 35.192 135.881 34.766 135.689 34.502C135.509 34.226 135.197 34.088 134.753 34.088C134.237 34.088 133.835 34.268 133.547 34.628C133.259 34.988 133.115 35.498 133.115 36.158V39.776C133.115 40.7 132.665 41.162 131.765 41.162C131.333 41.162 130.997 41.042 130.757 40.802C130.517 40.562 130.397 40.22 130.397 39.776V35.78C130.397 35.192 130.301 34.766 130.109 34.502C129.917 34.226 129.605 34.088 129.173 34.088C128.657 34.088 128.255 34.268 127.967 34.628C127.679 34.988 127.535 35.498 127.535 36.158V39.776C127.535 40.7 127.085 41.162 126.185 41.162Z" fill="black"/>
<path d="M33.5 45C43.165 45 51 37.165 51 27.5C51 17.835 43.165 10 33.5 10C23.835 10 16 17.835 16 27.5C16 37.165 23.835 45 33.5 45Z" fill="black"/>
<path fill-rule="evenodd" clip-rule="evenodd" d="M23.9215 27.3153C29.0231 25.0926 32.425 23.6273 34.1271 22.9193C38.987 20.8979 39.9969 20.5468 40.6551 20.5352C40.7999 20.5326 41.1236 20.5685 41.3332 20.7386C41.5103 20.8823 41.559 21.0763 41.5823 21.2125C41.6056 21.3487 41.6346 21.659 41.6115 21.9015C41.3482 24.6686 40.2086 31.3838 39.6289 34.483C39.3836 35.7945 38.9005 36.2342 38.4329 36.2772C37.4167 36.3707 36.645 35.6056 35.6607 34.9604C34.1204 33.9507 33.2503 33.3222 31.7553 32.337C30.0275 31.1984 31.1475 30.5726 32.1322 29.5499C32.3899 29.2823 36.8675 25.2095 36.9542 24.84C36.965 24.7938 36.9751 24.6216 36.8728 24.5306C36.7704 24.4397 36.6194 24.4708 36.5104 24.4955C36.356 24.5306 33.8954 26.1569 29.1288 29.3745C28.4304 29.8541 27.7978 30.0877 27.231 30.0755C26.6062 30.062 25.4042 29.7222 24.5107 29.4318C23.4148 29.0755 22.5438 28.8872 22.6196 28.2821C22.6591 27.967 23.0931 27.6447 23.9215 27.3153Z" fill="white"/>
</svg>
