<svg xmlns="http://www.w3.org/2000/svg" width="156" height="55" fill="none" xmlns:v="https://vecta.io/nano"><path d="M149.124 1H6.876C3.631 1 1 5.253 1 10.5v34C1 49.747 3.631 54 6.876 54h142.249c3.245 0 5.876-4.253 5.876-9.5v-34c0-5.247-2.631-9.5-5.876-9.5z" fill="#fffffc" stroke="#000"/><path d="M67.287 22.072c-.396 0-.594-.204-.594-.612v-5.193c0-.408.204-.612.612-.612h3.141c.312 0 .468.15.468.45 0 .312-.156.468-.468.468h-2.601v1.791h2.412c.312 0 .468.15.468.45 0 .312-.156.468-.468.468h-2.412v2.178c0 .408-.186.612-.558.612zm7.189.018c-.612 0-1.149-.135-1.611-.405-.456-.27-.81-.648-1.062-1.134-.252-.492-.378-1.068-.378-1.728 0-.666.126-1.242.378-1.728a2.71 2.71 0 0 1 1.062-1.125c.456-.27.993-.405 1.611-.405s1.155.135 1.611.405a2.71 2.71 0 0 1 1.062 1.125c.252.486.378 1.059.378 1.719 0 .666-.126 1.245-.378 1.737-.252.486-.606.864-1.062 1.134s-.993.405-1.611.405zm0-.99c.582 0 1.035-.201 1.359-.603s.486-.96.486-1.674c0-.72-.162-1.278-.486-1.674-.318-.396-.771-.594-1.359-.594-.582 0-1.035.198-1.359.594s-.486.954-.486 1.674c0 .714.162 1.272.486 1.674s.777.603 1.359.603zm4.807.9c-.39 0-.585-.198-.585-.594v-5.193c0-.39.192-.585.576-.585s.576.195.576.585v4.806h2.61c.336 0 .504.162.504.486 0 .33-.168.495-.504.495h-3.177zm5.054 0c-.39 0-.585-.198-.585-.594v-5.193c0-.39.192-.585.576-.585s.576.195.576.585v4.806h2.61c.336 0 .504.162.504.486 0 .33-.168.495-.504.495h-3.177zm6.97.09c-.612 0-1.149-.135-1.611-.405-.456-.27-.81-.648-1.062-1.134-.252-.492-.378-1.068-.378-1.728 0-.666.126-1.242.378-1.728a2.71 2.71 0 0 1 1.062-1.125c.456-.27.993-.405 1.611-.405s1.155.135 1.611.405a2.71 2.71 0 0 1 1.062 1.125c.252.486.378 1.059.378 1.719 0 .666-.126 1.245-.378 1.737-.252.486-.606.864-1.062 1.134s-.993.405-1.611.405zm0-.99c.582 0 1.035-.201 1.359-.603s.486-.96.486-1.674c0-.72-.162-1.278-.486-1.674-.318-.396-.771-.594-1.359-.594-.582 0-1.035.198-1.359.594s-.486.954-.486 1.674c0 .714.162 1.272.486 1.674s.777.603 1.359.603zm6.296.972c-.306 0-.516-.162-.63-.486l-1.881-5.319c-.066-.192-.054-.354.036-.486.096-.132.255-.198.477-.198.162 0 .288.039.378.117.09.072.162.189.216.351l1.44 4.284 1.512-4.275c.114-.318.306-.477.576-.477.144 0 .258.039.342.117s.156.201.216.369l1.485 4.329 1.485-4.347c.054-.156.126-.273.216-.351s.213-.117.369-.117c.192 0 .333.066.423.198s.102.294.036.486l-1.899 5.328c-.06.162-.138.282-.234.36s-.225.117-.387.117-.291-.039-.387-.117-.174-.201-.234-.369l-1.467-4.167-1.476 4.176c-.06.162-.138.282-.234.36-.09.078-.216.117-.378.117zm12.868.018c-.87 0-1.536-.225-1.998-.675-.456-.456-.684-1.128-.684-2.016v-3.231c0-.39.192-.585.576-.585s.576.195.576.585v3.222c0 .57.129.999.387 1.287.264.282.645.423 1.143.423 1.014 0 1.521-.57 1.521-1.71v-3.222c0-.39.192-.585.576-.585.378 0 .567.195.567.585v3.231c0 .888-.225 1.56-.675 2.016-.45.45-1.113.675-1.989.675zm6.194 0a5.15 5.15 0 0 1-1.179-.135c-.378-.09-.708-.225-.99-.405a.54.54 0 0 1-.252-.333.59.59 0 0 1 .027-.369c.054-.12.135-.201.243-.243.114-.048.243-.027.387.063.264.156.543.27.837.342s.603.108.927.108c.474 0 .819-.078 1.035-.234.216-.162.324-.369.324-.621a.59.59 0 0 0-.234-.495c-.15-.12-.411-.219-.783-.297l-.99-.207c-1.128-.24-1.692-.819-1.692-1.737 0-.396.105-.741.315-1.035s.501-.522.873-.684.801-.243 1.287-.243c.36 0 .702.045 1.026.135a2.97 2.97 0 0 1 .873.396.49.49 0 0 1 .216.315c.024.12.009.234-.045.342a.45.45 0 0 1-.261.216c-.114.036-.249.009-.405-.081a2.56 2.56 0 0 0-.675-.27c-.228-.054-.474-.081-.738-.081-.414 0-.738.087-.972.261s-.351.402-.351.684c0 .216.072.39.216.522.144.126.39.225.738.297l.981.207c.594.126 1.035.324 1.323.594.294.27.441.63.441 1.08 0 .378-.102.711-.306.999s-.495.513-.873.675c-.372.156-.813.234-1.323.234zm8.778 0c-.612 0-1.149-.135-1.611-.405-.456-.27-.81-.648-1.062-1.134-.252-.492-.378-1.068-.378-1.728 0-.666.126-1.242.378-1.728a2.71 2.71 0 0 1 1.062-1.125c.456-.27.993-.405 1.611-.405s1.155.135 1.611.405a2.71 2.71 0 0 1 1.062 1.125c.252.486.378 1.059.378 1.719 0 .666-.126 1.245-.378 1.737-.252.486-.606.864-1.062 1.134s-.993.405-1.611.405zm0-.99c.582 0 1.035-.201 1.359-.603s.486-.96.486-1.674c0-.72-.162-1.278-.486-1.674-.318-.396-.771-.594-1.359-.594-.582 0-1.035.198-1.359.594s-.486.954-.486 1.674c0 .714.162 1.272.486 1.674s.777.603 1.359.603zm4.763.972c-.36 0-.54-.186-.54-.558v-5.355c0-.186.045-.327.135-.423.096-.102.219-.153.369-.153.138 0 .24.027.306.081.072.048.156.132.252.252l3.213 4.167v-3.951c0-.366.18-.549.54-.549.354 0 .531.183.531.549v5.4c0 .168-.042.3-.126.396a.43.43 0 0 1-.342.144c-.138 0-.249-.027-.333-.081-.078-.054-.165-.141-.261-.261l-3.213-4.176v3.96c0 .372-.177.558-.531.558zm-58.5 19.09c-.456 0-.804-.126-1.044-.378s-.36-.606-.36-1.062v-9.108h-3.186c-.78 0-1.17-.384-1.17-1.152s.39-1.152 1.17-1.152h9.162c.78 0 1.17.384 1.17 1.152s-.39 1.152-1.17 1.152h-3.186v9.108c0 .456-.12.81-.36 1.062-.228.252-.57.378-1.026.378zm8.977.036c-1.044 0-1.944-.186-2.7-.558a4.21 4.21 0 0 1-1.728-1.602c-.396-.696-.594-1.512-.594-2.448 0-.912.192-1.71.576-2.394a4.24 4.24 0 0 1 1.602-1.62c.684-.396 1.47-.594 2.358-.594 1.284 0 2.304.408 3.06 1.224.756.804 1.134 1.896 1.134 3.276 0 .456-.282.684-.846.684h-5.292c.096.696.348 1.206.756 1.53.42.312.996.468 1.728.468a5.97 5.97 0 0 0 .972-.09 4.11 4.11 0 0 0 1.062-.36c.348-.168.642-.198.882-.09a.81.81 0 0 1 .486.504c.096.24.096.492 0 .756-.084.252-.282.462-.594.63-.42.228-.888.396-1.404.504a6.29 6.29 0 0 1-1.458.18zm-.378-7.416c-.576 0-1.044.174-1.404.522-.348.348-.564.834-.648 1.458h3.888c-.072-1.32-.684-1.98-1.836-1.98zm7.953 7.416c-2.124 0-3.186-1.182-3.186-3.546v-8.118c0-.924.456-1.386 1.368-1.386.9 0 1.35.462 1.35 1.386v8.01c0 .492.102.858.306 1.098.216.228.498.342.846.342a1.91 1.91 0 0 0 .27-.018c.096-.012.186-.018.27-.018.192-.012.324.048.396.18.084.132.126.402.126.81 0 .696-.294 1.092-.882 1.188l-.414.036a2.96 2.96 0 0 1-.45.036zm6.41 0c-1.044 0-1.944-.186-2.7-.558a4.21 4.21 0 0 1-1.728-1.602c-.396-.696-.594-1.512-.594-2.448 0-.912.192-1.71.576-2.394a4.24 4.24 0 0 1 1.602-1.62c.684-.396 1.47-.594 2.358-.594 1.284 0 2.304.408 3.06 1.224.756.804 1.134 1.896 1.134 3.276 0 .456-.282.684-.846.684h-5.292c.096.696.348 1.206.756 1.53.42.312.996.468 1.728.468a5.97 5.97 0 0 0 .972-.09 4.11 4.11 0 0 0 1.062-.36c.348-.168.642-.198.882-.09a.81.81 0 0 1 .486.504c.096.24.096.492 0 .756-.084.252-.282.462-.594.63-.42.228-.888.396-1.404.504a6.29 6.29 0 0 1-1.458.18zm-.378-7.416c-.576 0-1.044.174-1.404.522-.348.348-.564.834-.648 1.458h3.888c-.072-1.32-.684-1.98-1.836-1.98zm9.015 10.656a10.25 10.25 0 0 1-1.854-.162 6.62 6.62 0 0 1-1.584-.486c-.348-.144-.57-.348-.666-.612s-.096-.522 0-.774c.108-.252.27-.444.486-.576.228-.12.48-.12.756 0 .528.24 1.014.396 1.458.468.456.072.846.108 1.17.108 1.536 0 2.304-.708 2.304-2.124v-1.008c-.24.456-.618.822-1.134 1.098a3.53 3.53 0 0 1-1.692.414c-.792 0-1.482-.18-2.07-.54-.588-.372-1.044-.888-1.368-1.548s-.486-1.434-.486-2.322c0-.876.162-1.644.486-2.304s.78-1.17 1.368-1.53c.588-.372 1.278-.558 2.07-.558.612 0 1.17.132 1.674.396s.876.612 1.116 1.044v-.036c0-.444.114-.78.342-1.008.24-.24.576-.36 1.008-.36.888 0 1.332.456 1.332 1.368v6.588c0 1.488-.402 2.604-1.206 3.348s-1.974 1.116-3.51 1.116zm.054-5.688c.6 0 1.08-.21 1.44-.63.372-.42.558-1.002.558-1.746s-.186-1.32-.558-1.728c-.36-.42-.84-.63-1.44-.63-.612 0-1.098.21-1.458.63-.36.408-.54.984-.54 1.728s.18 1.326.54 1.746.846.63 1.458.63zm7.277 2.412c-.936 0-1.404-.462-1.404-1.386v-6.39c0-.912.444-1.368 1.331-1.368s1.333.456 1.333 1.368v.324c.432-1.068 1.326-1.644 2.682-1.728.3-.024.528.054.684.234.168.168.258.45.27.846.024.372-.054.666-.234.882-.168.216-.456.348-.864.396l-.414.036c-1.344.132-2.016.816-2.016 2.052v3.348c0 .924-.456 1.386-1.368 1.386zm8.014.036c-.66 0-1.242-.126-1.746-.378s-.906-.594-1.206-1.026a2.57 2.57 0 0 1-.432-1.458c0-.636.168-1.146.504-1.53s.882-.654 1.638-.81c.756-.168 1.758-.252 3.006-.252h.648v-.306c0-.528-.12-.9-.36-1.116-.24-.228-.648-.342-1.224-.342-.324 0-.678.042-1.062.126-.384.072-.798.198-1.242.378-.336.144-.618.156-.846.036a.94.94 0 0 1-.45-.576c-.072-.264-.054-.528.054-.792.12-.264.348-.456.684-.576.564-.216 1.092-.366 1.584-.45.504-.096.966-.144 1.386-.144 1.368 0 2.388.312 3.06.936.672.612 1.008 1.566 1.008 2.862v3.996c0 .924-.42 1.386-1.26 1.386-.852 0-1.278-.462-1.278-1.386v-.108c-.18.468-.486.84-.918 1.116-.42.276-.936.414-1.548.414zm.612-1.818c.504 0 .93-.174 1.278-.522s.522-.798.522-1.35v-.36h-.63c-.924 0-1.578.084-1.962.252-.384.156-.576.432-.576.828a1.09 1.09 0 0 0 .342.828c.24.216.582.324 1.026.324zm6.923 1.782c-.912 0-1.368-.462-1.368-1.386v-6.39c0-.912.444-1.368 1.332-1.368s1.332.456 1.332 1.368v.054c.264-.456.624-.81 1.08-1.062.468-.264 1.008-.396 1.62-.396.624 0 1.152.138 1.584.414.444.276.78.696 1.008 1.26a2.92 2.92 0 0 1 1.188-1.224c.528-.3 1.11-.45 1.746-.45 1.008 0 1.758.306 2.25.918.492.6.738 1.53.738 2.79v4.086c0 .444-.12.786-.36 1.026-.228.24-.558.36-.99.36-.912 0-1.368-.462-1.368-1.386V35.78c0-.588-.096-1.014-.288-1.278-.18-.276-.492-.414-.936-.414-.516 0-.918.18-1.206.54s-.432.87-.432 1.53v3.618c0 .924-.45 1.386-1.35 1.386-.432 0-.768-.12-1.008-.36s-.36-.582-.36-1.026V35.78c0-.588-.096-1.014-.288-1.278-.192-.276-.504-.414-.936-.414-.516 0-.918.18-1.206.54s-.432.87-.432 1.53v3.618c0 .924-.45 1.386-1.35 1.386zM33.5 45C43.165 45 51 37.165 51 27.5S43.165 10 33.5 10 16 17.835 16 27.5 23.835 45 33.5 45z" fill="#000"/><path fill-rule="evenodd" d="M23.922 27.315l10.206-4.396 6.528-2.384c.145-.003.469.033.678.203.177.144.226.338.249.474s.052.447.029.689c-.263 2.767-1.403 9.482-1.983 12.581-.245 1.312-.728 1.751-1.196 1.794-1.016.093-1.788-.672-2.772-1.317l-3.905-2.623c-1.728-1.139-.608-1.764.377-2.787.258-.268 4.735-4.34 4.822-4.71.011-.046.021-.218-.081-.309s-.253-.06-.362-.035c-.154.035-2.615 1.661-7.382 4.879-.698.48-1.331.713-1.898.701-.625-.014-1.827-.353-2.72-.644-1.096-.356-1.967-.545-1.891-1.15.04-.315.474-.637 1.302-.967z" fill="#fff"/></svg>