<svg xmlns="http://www.w3.org/2000/svg" width="156" height="55" fill="none" xmlns:v="https://vecta.io/nano"><path d="M149.124 1H6.876C3.631 1 1 5.253 1 10.5v34C1 49.747 3.631 54 6.876 54h142.249c3.245 0 5.876-4.253 5.876-9.5v-34c0-5.247-2.631-9.5-5.876-9.5z" fill="#fffffc" stroke="#000"/><path d="M67.305 22c-.408 0-.612-.204-.612-.612v-5.121c0-.408.204-.612.612-.612h2.16c.666 0 1.182.147 1.548.441.366.288.549.69.549 1.206 0 .342-.087.636-.261.882s-.414.426-.72.54c.36.102.639.282.837.54.204.252.306.573.306.963 0 .564-.192 1.002-.576 1.314-.378.306-.906.459-1.584.459h-2.259zm.495-3.654h1.467c.786 0 1.179-.303 1.179-.909s-.393-.909-1.179-.909H67.8v1.818zm0 2.781h1.62c.792 0 1.188-.318 1.188-.954s-.396-.954-1.188-.954H67.8v1.908zm6.7.945c-.384 0-.576-.198-.576-.594v-5.301c0-.396.192-.594.576-.594s.576.198.576.594v5.301c0 .396-.192.594-.576.594zm0-7.173c-.39 0-.585-.189-.585-.567 0-.372.195-.558.585-.558s.585.186.585.558c0 .378-.195.567-.585.567zM77.76 22c-.198 0-.348-.051-.45-.153-.096-.108-.138-.246-.126-.414.018-.168.093-.342.225-.522l3.168-4.293H77.67c-.342 0-.513-.162-.513-.486 0-.318.171-.477.513-.477h3.726c.198 0 .345.054.441.162.102.102.147.237.135.405-.012.162-.087.336-.225.522l-3.168 4.293h3.042c.342 0 .513.159.513.477 0 .324-.171.486-.513.486H77.76zm6.799.072c-.384 0-.576-.198-.576-.594v-5.301c0-.396.192-.594.576-.594s.576.198.576.594v5.301c0 .396-.192.594-.576.594zm0-7.173c-.39 0-.585-.189-.585-.567 0-.372.195-.558.585-.558s.585.186.585.558c0 .378-.195.567-.585.567zm8.583 7.173c-.384 0-.576-.198-.576-.594v-4.86h-1.755c-.33 0-.495-.162-.495-.486 0-.318.165-.477.495-.477h4.662c.33 0 .495.159.495.477 0 .324-.165.486-.495.486h-1.755v4.86c0 .396-.192.594-.576.594zm3.879 0c-.21 0-.36-.072-.45-.216s-.087-.318.009-.522l2.376-5.265c.078-.174.171-.297.279-.369a.67.67 0 0 1 .387-.117c.138 0 .261.039.369.117a.81.81 0 0 1 .288.369l2.385 5.265c.096.21.102.387.018.531-.084.138-.228.207-.432.207-.168 0-.3-.039-.396-.117-.09-.084-.171-.21-.243-.378l-.45-1.044h-3.096l-.441 1.044c-.078.174-.159.3-.243.378s-.204.117-.36.117zm2.583-5.166l-1.143 2.709h2.304l-1.143-2.709h-.018zm5.662 5.166c-.384 0-.576-.198-.576-.594v-5.31c0-.39.192-.585.576-.585s.576.195.576.585v2.295h.018l2.583-2.592a1.13 1.13 0 0 1 .288-.216c.096-.048.204-.072.324-.072.174 0 .297.045.369.135.078.09.108.195.09.315-.012.12-.069.231-.171.333l-2.367 2.34 2.493 2.529a.56.56 0 0 1 .198.378c.006.132-.036.243-.126.333-.084.084-.21.126-.378.126-.144 0-.261-.03-.351-.09-.084-.06-.183-.147-.297-.261l-2.655-2.655h-.018v2.412c0 .396-.192.594-.576.594zm7.02 0c-.384 0-.576-.198-.576-.594v-5.301c0-.396.192-.594.576-.594s.576.198.576.594v5.301c0 .396-.192.594-.576.594zm0-7.173c-.39 0-.585-.189-.585-.567 0-.372.195-.558.585-.558s.585.186.585.558c0 .378-.195.567-.585.567zm3.575 7.173c-.384 0-.576-.198-.576-.594V16.24c0-.39.195-.585.585-.585h2.169c.696 0 1.233.174 1.611.522s.567.834.567 1.458-.189 1.113-.567 1.467c-.378.348-.915.522-1.611.522h-1.602v1.854c0 .396-.192.594-.576.594zm.576-3.357h1.422c.828 0 1.242-.36 1.242-1.08 0-.714-.414-1.071-1.242-1.071h-1.422v2.151zM126.283 22c-.408 0-.612-.204-.612-.612v-5.121c0-.408.204-.612.612-.612h3.213c.312 0 .468.15.468.45 0 .312-.156.468-.468.468h-2.718v1.746h2.52c.312 0 .468.153.468.459s-.156.459-.468.459h-2.52v1.845h2.718c.312 0 .468.153.468.459s-.156.459-.468.459h-3.213zm7.855.072c-.384 0-.576-.198-.576-.594v-4.86h-1.755c-.33 0-.495-.162-.495-.486 0-.318.165-.477.495-.477h4.662c.33 0 .495.159.495.477 0 .324-.165.486-.495.486h-1.755v4.86c0 .396-.192.594-.576.594zm-62.432 19.09c-.456 0-.804-.126-1.044-.378s-.36-.606-.36-1.062v-9.108h-3.186c-.78 0-1.17-.384-1.17-1.152s.39-1.152 1.17-1.152h9.162c.78 0 1.17.384 1.17 1.152s-.39 1.152-1.17 1.152h-3.186v9.108c0 .456-.12.81-.36 1.062-.228.252-.57.378-1.026.378zm10.578 0c-.732 0-1.242-.366-1.53-1.098l-2.538-6.282c-.192-.492-.192-.906 0-1.242.204-.348.582-.522 1.134-.522.312 0 .564.078.756.234.204.144.384.426.54.846l1.764 4.734 1.854-4.968c.204-.564.588-.846 1.152-.846s.954.282 1.17.846l1.836 5.04 1.8-4.878c.144-.384.324-.648.54-.792.228-.144.48-.216.756-.216.516 0 .852.18 1.008.54s.138.768-.054 1.224l-2.52 6.282c-.288.732-.798 1.098-1.53 1.098s-1.242-.366-1.53-1.098l-1.566-4.086-1.53 4.068c-.276.744-.78 1.116-1.512 1.116zm14.856-10.62c-.504 0-.894-.114-1.17-.342-.264-.24-.396-.576-.396-1.008 0-.444.132-.78.396-1.008.276-.24.666-.36 1.17-.36 1.032 0 1.548.456 1.548 1.368 0 .9-.516 1.35-1.548 1.35zm0 10.602c-.444 0-.786-.126-1.026-.378-.228-.264-.342-.63-.342-1.098v-6.156c0-.996.456-1.494 1.368-1.494.432 0 .762.132.99.396.24.252.36.618.36 1.098v6.156c0 .468-.114.834-.342 1.098-.228.252-.564.378-1.008.378zm9.407.054c-2.484 0-3.726-1.206-3.726-3.618v-3.384h-.756c-.708 0-1.062-.336-1.062-1.008 0-.684.354-1.026 1.062-1.026h.756v-1.368c0-.924.456-1.386 1.368-1.386.9 0 1.35.462 1.35 1.386v1.368h1.71c.696 0 1.044.342 1.044 1.026 0 .672-.348 1.008-1.044 1.008h-1.71v3.276c0 .504.114.882.342 1.134.24.252.618.378 1.134.378a2.24 2.24 0 0 0 .504-.054c.156-.036.3-.06.432-.072a.48.48 0 0 1 .414.162c.108.12.162.366.162.738 0 .3-.048.558-.144.774-.096.204-.264.354-.504.45-.156.06-.372.108-.648.144-.264.048-.492.072-.684.072zm8.247 0c-2.484 0-3.726-1.206-3.726-3.618v-3.384h-.756c-.708 0-1.062-.336-1.062-1.008 0-.684.354-1.026 1.062-1.026h.756v-1.368c0-.924.456-1.386 1.368-1.386.9 0 1.35.462 1.35 1.386v1.368h1.71c.696 0 1.044.342 1.044 1.026 0 .672-.348 1.008-1.044 1.008h-1.71v3.276c0 .504.114.882.342 1.134.24.252.618.378 1.134.378a2.24 2.24 0 0 0 .504-.054c.156-.036.3-.06.432-.072a.48.48 0 0 1 .414.162c.108.12.162.366.162.738 0 .3-.048.558-.144.774-.096.204-.264.354-.504.45-.156.06-.372.108-.648.144-.264.048-.492.072-.684.072zm9.061 0c-1.044 0-1.944-.186-2.7-.558a4.21 4.21 0 0 1-1.728-1.602c-.396-.696-.594-1.512-.594-2.448 0-.912.192-1.71.576-2.394a4.24 4.24 0 0 1 1.602-1.62c.684-.396 1.47-.594 2.358-.594 1.284 0 2.304.408 3.06 1.224.756.804 1.134 1.896 1.134 3.276 0 .456-.282.684-.846.684h-5.292c.096.696.348 1.206.756 1.53.42.312.996.468 1.728.468a5.97 5.97 0 0 0 .972-.09 4.11 4.11 0 0 0 1.062-.36c.348-.168.642-.198.882-.09a.81.81 0 0 1 .486.504c.096.24.096.492 0 .756-.084.252-.282.462-.594.63-.42.228-.888.396-1.404.504a6.29 6.29 0 0 1-1.458.18zm-.378-7.416c-.576 0-1.044.174-1.404.522-.348.348-.564.834-.648 1.458h3.888c-.072-1.32-.684-1.98-1.836-1.98zm8.691 7.38c-.936 0-1.404-.462-1.404-1.386v-6.39c0-.912.444-1.368 1.332-1.368s1.332.456 1.332 1.368v.324c.432-1.068 1.326-1.644 2.682-1.728.3-.024.528.054.684.234.168.168.258.45.27.846.024.372-.054.666-.234.882-.168.216-.456.348-.864.396l-.414.036c-1.344.132-2.016.816-2.016 2.052v3.348c0 .924-.456 1.386-1.368 1.386z" fill="#000"/><g clip-path="url(#A)"><path d="M51 16.646c-1.288.572-2.672.957-4.124 1.13 1.483-.888 2.622-2.295 3.157-3.972-1.387.822-2.924 1.42-4.56 1.743a7.17 7.17 0 0 0-5.241-2.268 7.19 7.19 0 0 0-6.996 8.816c-5.966-.299-11.257-3.157-14.799-7.502-1.881 3.227-.976 7.449 2.221 9.587a7.15 7.15 0 0 1-3.251-.898c-.079 3.327 2.306 6.439 5.759 7.131a7.2 7.2 0 0 1-3.243.123c.913 2.853 3.564 4.928 6.708 4.986-3.019 2.367-6.822 3.424-10.631 2.975 3.178 2.037 6.953 3.226 11.008 3.226 13.332 0 20.864-11.26 20.409-21.359A14.62 14.62 0 0 0 51 16.646h0z" fill="#000"/></g><defs><clipPath id="A"><path fill="#fff" transform="translate(16 10)" d="M0 0h35v35H0z"/></clipPath></defs></svg>